<svg width="1500" height="1500" viewBox="0 0 1500 1500" fill="none" xmlns="http://www.w3.org/2000/svg">
<rect width="1500" height="1500" fill="#1E1E1E"/>
<g clip-path="url(#clip0_0_1)">
<path d="M730.96 369.25C521.32 369.25 350.78 539.79 350.78 749.43C350.7 810.16 365.26 870.01 393.23 923.91C418.25 986.01 464.6 1037.15 523.93 1068.16C585.48 1108.35 657.42 1129.71 730.93 1129.62C940.55 1129.62 1111.11 959.05 1111.11 749.43C1111.11 539.81 940.6 369.25 730.96 369.25ZM816.62 1047.73C890.46 995.11 934.27 910.02 934.2 819.36C934.2 664.4 808.59 538.82 653.65 538.82C572.86 538.73 495.97 573.55 442.75 634.33C488.6 520.03 600.5 439.13 730.95 439.13C902.05 439.13 1041.26 578.34 1041.27 749.45C1041.28 890.84 946.2 1010.47 816.62 1047.73Z" fill="#529471"/>
<path d="M405.62 854.09C478.12 788.55 584.01 718.51 703.81 656.89C734.8 640.94 765.7 626.09 796.14 612.45C780.31 602.14 764.72 591.47 749.72 580.05C739.15 575.85 728.73 571.3 718.43 566.73C702.27 574.46 686.06 582.51 669.8 590.87C544.45 655.39 432.88 729.34 355.81 799.03C264.77 881.33 231.76 948.58 257.67 998.96C274.73 1032.1 312.59 1048.73 370.66 1048.73C400.79 1048.73 436.36 1044.25 477.38 1035.28C550.67 1019.23 636.16 989.81 725.17 950.46C743.72 942.2 752.06 920.46 743.8 901.91C743.04 900.2 742.15 898.55 741.14 896.98L740.72 896.3C731 881.11 711.64 875.3 695.16 882.61C610.8 919.91 530.21 947.74 461.62 962.78C358.43 985.39 325.91 969.13 323.77 965C321.63 960.87 327.26 925.01 405.62 854.09Z" fill="#A3CD9E"/>
<path d="M1241.44 492.59C1215.52 442.25 1141.61 430.02 1021.72 456.29C993.11 462.56 962.6 470.92 930.8 481.04C952.48 498.69 973.62 517.85 988.4 541.2C1005.34 536.43 1021.82 532.24 1037.59 528.79C1077.98 519.94 1107.54 517.05 1128.69 517.05C1161.56 517.05 1174.14 524.05 1175.44 526.57C1177.58 530.68 1171.89 566.61 1093.53 637.5C1059.76 668.04 1018.67 699.55 972.35 730.73C955.55 742.04 951.08 764.81 962.35 781.63L962.76 782.25C974.12 799.09 996.97 803.53 1013.81 792.18C1063.11 758.98 1107.06 725.3 1143.29 692.52C1234.35 610.2 1267.35 542.93 1241.44 492.59Z" fill="#A3CD9E"/>
<path d="M832.62 822.06L770.46 833.02L719.38 795.95C703.04 784.09 680.58 798.14 684.09 818.03L695.05 880.19L657.98 931.27C646.12 947.61 660.17 970.07 680.06 966.56L742.22 955.6L793.3 992.67C809.64 1004.53 832.1 990.48 828.59 970.59L817.63 908.43L854.67 857.35C866.54 841.01 852.49 818.55 832.62 822.06Z" fill="#A3CD9E"/>
<path d="M733.15 372.97C523.51 372.97 352.97 543.52 352.97 753.15C352.92 804.81 363.45 855.93 383.93 903.35L385.56 902.1C386.11 903.91 386.68 905.69 387.27 907.48C422.27 901.06 457.98 897.81 493.23 894.32L498.5 893.77C538.15 875.97 579.72 862.38 621.94 851.44C622.24 849.3 622.93 847.22 623.98 845.33C619.64 838.74 618.8 829.7 625.35 822.14C660.13 782.19 713 768.73 763.67 762.83C774.82 761.46 780.62 769.05 781.25 777.66C830 769.9 880.11 771.07 930.1 772.18C907.7 639.71 792.48 538.81 653.62 538.81C576.53 538.7 502.81 570.41 449.87 626.46C498.4 518.27 607.13 442.77 733.16 442.77C838.84 442.77 932.31 495.92 988.37 576.85C1009.17 566.06 1030.08 555.45 1050.6 544.13C982.52 441.12 865.62 372.97 733.15 372.97Z" fill="#529471"/>
</g>
<defs>
<clipPath id="clip0_0_1">
<rect width="1000" height="1000" fill="white" transform="translate(250 250)"/>
</clipPath>
</defs>
</svg>
