<?xml version="1.0" encoding="utf-8"?>
<!-- Generator: Adobe Illustrator 24.3.0, SVG Export Plug-In . SVG Version: 6.00 Build 0)  -->
<svg version="1.1" xmlns="http://www.w3.org/2000/svg" xmlns:xlink="http://www.w3.org/1999/xlink" x="0px" y="0px"
	 viewBox="0 0 1000 175" style="enable-background:new 0 0 1000 175;" xml:space="preserve">
<style type="text/css">
	.st0{fill:none;stroke:#000000;stroke-miterlimit:10;}
	.st1{fill:#010101;}
	.st2{fill:#FCF8E9;}
	.st3{fill:#1C1C1C;}
	.st4{fill:#231F20;}
</style>
<g id="Layer_1">
	<path class="st0" d="M89.21,175.18H-20.02c-48.32,0-87.5-39.18-87.5-87.5v0c0-48.32,39.18-87.5,87.5-87.5H89.21
		c48.32,0,87.5,39.18,87.5,87.5v0C176.71,136.01,137.53,175.18,89.21,175.18z"/>
	<path class="st0" d="M264.21,175L264.21,175c-48.33,0-87.5-39.18-87.5-87.5v0c0-48.32,39.18-87.5,87.5-87.5h0
		c48.32,0,87.5,39.18,87.5,87.5v0C351.71,135.82,312.53,175,264.21,175z"/>
	<path class="st1" d="M294.32,85.62c-25.34,2.71-27.39,4.8-30.11,30.11c-2.71-25.34-4.8-27.41-30.11-30.11
		c25.34-2.71,27.41-4.78,30.11-30.11C266.91,80.84,268.99,82.92,294.32,85.62z"/>
	<path class="st0" d="M606.19,175H439.21c-48.32,0-87.5-39.18-87.5-87.5v0c0-48.32,39.18-87.5,87.5-87.5l166.98,0
		c48.32,0,87.5,39.18,87.5,87.5v0C693.69,135.82,654.52,175,606.19,175z"/>
	<path class="st0" d="M781.19,175L781.19,175c-48.33,0-87.5-39.18-87.5-87.5v0c0-48.32,39.17-87.5,87.5-87.5h0
		c48.32,0,87.5,39.18,87.5,87.5v0C868.69,135.82,829.52,175,781.19,175z"/>
	<path class="st0" d="M1039.34,175h-83.15c-48.32,0-87.5-39.18-87.5-87.5v0c0-48.32,39.17-87.5,87.5-87.5l83.15,0
		c48.32,0,87.5,39.18,87.5,87.5v0C1126.84,135.82,1087.66,175,1039.34,175z"/>
	<g>
		<path class="st1" d="M779.04,106.51l-8.91,4.67c-3.33,1.74-7.25-1.09-6.6-4.78l1.7-9.93c0.25-1.49-0.25-2.97-1.3-4.02l-7.21-7.03
			c-2.72-2.65-1.2-7.21,2.54-7.76l9.97-1.45c1.49-0.22,2.75-1.16,3.44-2.5l4.46-9.02c1.67-3.37,6.49-3.37,8.15,0l4.46,9.02
			c0.65,1.34,1.96,2.28,3.44,2.5l9.97,1.45c3.73,0.54,5.22,5.15,2.54,7.76l-7.21,7.03c-1.09,1.05-1.56,2.54-1.3,4.02l1.7,9.93
			c0.65,3.73-3.26,6.56-6.6,4.78l-8.91-4.67C781.98,105.83,780.38,105.83,779.04,106.51z"/>
	</g>
	<path class="st0" d="M-195.02,175.18h-184.71c-48.32,0-87.5-39.18-87.5-87.5v0c0-48.32,39.18-87.5,87.5-87.5h184.71
		c48.32,0,87.5,39.18,87.5,87.5v0C-107.52,136.01-146.69,175.18-195.02,175.18z"/>
	<path class="st0" d="M89.21,175.18L89.21,175.18c-48.33,0-87.5-39.18-87.5-87.5v0c0-48.32,39.18-87.5,87.5-87.5h0
		c48.32,0,87.5,39.18,87.5,87.5v0C176.71,136.01,137.53,175.18,89.21,175.18z"/>
	<path class="st0" d="M1381.32,174.45h-166.98c-48.32,0-87.5-39.18-87.5-87.5v0c0-48.32,39.18-87.5,87.5-87.5h166.98
		c48.32,0,87.5,39.18,87.5,87.5v0C1468.82,135.27,1429.65,174.45,1381.32,174.45z"/>
	<path class="st0" d="M956.19,175L956.19,175c-48.33,0-87.5-39.18-87.5-87.5v0c0-48.32,39.17-87.5,87.5-87.5h0
		c48.32,0,87.5,39.18,87.5,87.5v0C1043.69,135.82,1004.52,175,956.19,175z"/>
	<path class="st1" d="M975.05,107c-10.68,0-25.38-8.65-32.86-19.31c-7.47-10.68-4.87-19.31,5.79-19.31c7.08,0,15.94,3.82,23.3,9.52
		c-9.63-8.39-22.14-14.26-31.92-14.26c-13.28,0-16.5,10.77-7.21,24.05s27.61,24.05,40.9,24.05c9.8,0,14.09-5.86,11.97-14.26
		C985.63,103.18,982.15,107,975.05,107z"/>
</g>
<g id="Layer_3">
	<path id="path4097" class="st2" d="M113.7,67.48c-0.1-0.45-0.2-0.91-0.3-1.36c-10.4,2.22-20.78,4.55-31.17,6.83
		c-5.5,1.23-11.03,2.39-16.52,3.68c0.41,1.87,0.81,3.74,1.24,5.61c0.81-0.13,1.62-0.29,2.43-0.47l0.37-0.08l0.08,0.37
		c0.17,0.8,0.35,1.59,0.53,2.38c0.82-0.16,1.65-0.28,2.44-0.55l0.44-0.15l0.04,0.47c0.08,0.84,0.33,1.65,0.53,2.47
		c0.79-0.16,1.58-0.31,2.36-0.48l0.36-0.07l0.07,0.36c0.13,0.62,0.28,1.24,0.45,1.85l0.11,0.41l-0.42,0.06
		c-1.74,0.25-3.4,0.92-5.13,1.2c0.15,0.82,0.32,1.63,0.49,2.44l0.07,0.35l-0.35,0.08c-1.73,0.4-3.47,0.78-5.21,1.19
		c0.16,0.8,0.33,1.61,0.5,2.41l0.08,0.36l-0.36,0.08c-0.81,0.19-1.61,0.38-2.43,0.55c0.39,1.89,0.81,3.77,1.24,5.65
		c0.81-0.11,1.63-0.26,2.43-0.49l0.39-0.11l0.08,0.4c0.15,0.8,0.34,1.6,0.53,2.39c1.88-0.39,3.75-0.81,5.62-1.24
		c-0.16-0.81-0.32-1.61-0.49-2.42l-0.07-0.35l0.35-0.08c1.74-0.41,3.47-0.78,5.21-1.17c-0.15-0.81-0.31-1.63-0.51-2.43l-0.09-0.38
		l0.39-0.07c0.68-0.12,1.35-0.26,2.01-0.41l0.36-0.08L81.94,97c0.8,3.6,1.59,7.19,2.42,10.78c1.87-0.39,3.74-0.79,5.6-1.24
		c-0.18-0.81-0.35-1.62-0.52-2.43l-0.07-0.35l0.35-0.08c0.81-0.19,1.62-0.38,2.43-0.55c-0.16-0.81-0.33-1.61-0.51-2.42l-0.08-0.36
		l0.36-0.08c0.8-0.19,1.6-0.37,2.4-0.56c-0.14-0.81-0.3-1.62-0.49-2.44l-0.08-0.36l0.37-0.08c0.81-0.18,1.62-0.36,2.43-0.55
		c-0.18-0.81-0.36-1.62-0.52-2.43l-0.07-0.35l0.35-0.08c0.8-0.18,1.59-0.36,2.37-0.56c-0.13-0.81-0.3-1.61-0.48-2.42l-0.08-0.36
		L98.48,90c0.81-0.19,1.61-0.38,2.43-0.55c-0.18-0.81-0.35-1.62-0.51-2.43l-0.07-0.34l0.34-0.09c0.8-0.21,1.61-0.42,2.42-0.6
		c-0.16-0.79-0.33-1.59-0.5-2.38l-0.08-0.35l0.35-0.09c0.8-0.2,1.61-0.39,2.42-0.56c-0.17-0.81-0.34-1.62-0.51-2.44l-0.07-0.34
		l0.34-0.09c0.8-0.21,1.61-0.4,2.42-0.58c-0.16-0.81-0.33-1.61-0.51-2.42l-0.08-0.36l0.36-0.08c0.8-0.18,1.61-0.37,2.41-0.56
		c-0.17-0.81-0.35-1.62-0.52-2.44l-0.07-0.35l0.35-0.08c0.81-0.19,1.62-0.37,2.43-0.55c-0.16-0.82-0.34-1.63-0.53-2.45l-0.08-0.36
		l0.36-0.08c0.81-0.18,1.62-0.38,2.42-0.59C113.9,68.38,113.8,67.93,113.7,67.48L113.7,67.48z"/>
	<path id="path3022" class="st3" d="M113.39,66.12c0.21,0.91,0.41,1.82,0.6,2.72c-0.92,0.24-1.84,0.47-2.77,0.68
		c0.21,0.93,0.42,1.86,0.6,2.8c-0.93,0.21-1.85,0.41-2.77,0.63c-0.2-0.94-0.41-1.88-0.62-2.82c-13.09,2.88-26.16,5.8-39.25,8.67
		c0.19,0.93,0.4,1.86,0.62,2.78c0.92-0.21,1.85-0.41,2.77-0.61c0.22,0.92,0.51,1.84,0.54,2.8c-0.88,0.35-1.83,0.47-2.76,0.65
		c-0.21-0.91-0.42-1.82-0.61-2.73c-0.93,0.21-1.86,0.39-2.8,0.54c-0.43-1.86-0.82-3.74-1.23-5.61c5.49-1.29,11.01-2.44,16.52-3.68
		C92.61,70.67,102.99,68.34,113.39,66.12z"/>
	<path id="path3024" class="st3" d="M109.04,72.94c0.2,0.93,0.4,1.86,0.6,2.79c-0.92,0.22-1.84,0.43-2.76,0.64
		c0.2,0.93,0.4,1.85,0.58,2.78c-0.92,0.21-1.85,0.41-2.77,0.66c0.19,0.93,0.39,1.86,0.58,2.79c-0.92,0.19-1.85,0.41-2.77,0.64
		c0.2,0.91,0.4,1.83,0.57,2.74c-0.92,0.21-1.84,0.45-2.76,0.68c0.19,0.93,0.39,1.85,0.59,2.78c-0.93,0.2-1.85,0.41-2.77,0.63
		c0.2,0.92,0.39,1.85,0.55,2.78c-0.91,0.23-1.82,0.44-2.73,0.64c0.18,0.93,0.38,1.86,0.59,2.78c-0.93,0.21-1.85,0.43-2.78,0.63
		c-0.25-0.93-0.45-1.87-0.63-2.81c0.93-0.2,1.86-0.41,2.78-0.61c-0.19-0.94-0.4-1.88-0.62-2.82c0.94-0.19,1.88-0.4,2.81-0.62
		c-0.21-0.93-0.41-1.86-0.62-2.79c0.93-0.21,1.86-0.41,2.79-0.61c-0.19-0.95-0.39-1.88-0.62-2.82c0.94-0.21,1.88-0.41,2.82-0.63
		c-0.2-0.93-0.41-1.86-0.62-2.79c0.93-0.22,1.87-0.42,2.8-0.64c-0.21-0.93-0.41-1.87-0.6-2.8c0.93-0.2,1.85-0.4,2.78-0.61
		c-0.19-0.93-0.4-1.85-0.61-2.78C107.17,73.35,108.11,73.14,109.04,72.94L109.04,72.94z"/>
	<path id="path3028" class="st3" d="M93.76,96.91c0.23,0.92,0.39,1.86,0.56,2.8c-0.92,0.22-1.83,0.43-2.75,0.64
		c0.2,0.92,0.4,1.85,0.58,2.78c-0.93,0.2-1.86,0.41-2.78,0.63c0.19,0.93,0.39,1.86,0.59,2.78c-1.86,0.45-3.72,0.85-5.59,1.24
		c-0.86-3.71-1.68-7.43-2.51-11.14c-0.91,0.21-1.83,0.41-2.75,0.56c-0.25-0.93-0.45-1.87-0.65-2.81c1.87-0.44,3.74-0.85,5.61-1.24
		c0.85,3.73,1.64,7.48,2.48,11.21c0.94-0.19,1.88-0.4,2.81-0.62c-0.2-0.94-0.41-1.87-0.6-2.81c0.93-0.2,1.86-0.4,2.78-0.62
		c-0.19-0.93-0.4-1.85-0.61-2.78C91.86,97.31,92.81,97.1,93.76,96.91L93.76,96.91z"/>
	<path id="path3032" class="st3" d="M79.43,85.35c0.21,0.93,0.41,1.86,0.61,2.79c-0.95,0.25-1.91,0.5-2.89,0.58
		c-0.26-0.86-0.44-1.73-0.63-2.61c-0.9,0.2-1.81,0.37-2.72,0.55c-0.22-0.92-0.53-1.84-0.56-2.8c0.87-0.4,1.83-0.51,2.75-0.7
		c0.21,0.93,0.42,1.86,0.62,2.79C77.56,85.74,78.49,85.54,79.43,85.35L79.43,85.35z"/>
	<path id="path3034" class="st3" d="M77.15,88.71c0.32,0.93,0.5,1.9,0.69,2.87c-1.86,0.43-3.73,0.82-5.59,1.25
		c0.21,0.94,0.41,1.87,0.6,2.81c-1.86,0.41-3.72,0.8-5.57,1.24c0.38,1.88,0.89,3.74,1.19,5.63c-0.91,0.31-1.86,0.46-2.82,0.59
		c-0.43-1.88-0.85-3.76-1.24-5.65c0.93-0.2,1.85-0.41,2.78-0.64c-0.2-0.92-0.39-1.84-0.58-2.77c1.85-0.44,3.71-0.84,5.56-1.27
		c-0.2-0.93-0.39-1.86-0.56-2.79C73.49,89.68,75.26,88.91,77.15,88.71L77.15,88.71z"/>
	<path id="path3036" class="st3" d="M79.11,97.2c0.25,0.92,0.43,1.86,0.6,2.8c-1.85,0.42-3.72,0.81-5.57,1.25
		c0.19,0.92,0.39,1.85,0.57,2.78c-1.87,0.43-3.74,0.86-5.62,1.24c-0.23-0.92-0.45-1.84-0.61-2.77c1.84-0.52,3.73-0.84,5.6-1.27
		c-0.19-0.94-0.4-1.88-0.6-2.82C75.35,98,77.22,97.57,79.11,97.2L79.11,97.2z"/>
</g>
<g id="Layer_2">
	<path id="path4109" class="st2" d="M556.48,76.08c-0.75-0.01-1.5-0.01-2.24-0.02l-0.31,0l-0.01-0.31c-0.02-0.75-0.03-1.5-0.04-2.25
		c-7.61-0.04-15.21-0.02-22.81-0.02h-0.33l0-0.33c-0.01-0.63-0.01-1.27-0.03-1.9l-0.01-0.34l0.34,0c0.74,0.01,1.49,0.01,2.22-0.01
		c0.02-2.58,0.03-5.16-0.01-7.74c-2.57,0-5.14,0-7.71,0c-0.01,0.75-0.05,1.51,0,2.26l0.03,0.41l-0.41-0.06
		c-0.74-0.11-1.49-0.04-2.24-0.03c-0.04,0.71-0.04,1.43-0.05,2.15v0.31l-0.31,0.02c-1.59,0.12-3.18,0.06-4.78,0.09
		c-0.03,0.74-0.04,1.49-0.05,2.23l0,0.32l-0.32,0c-1.59,0.01-3.19,0.01-4.78,0.03c-0.01,0.75-0.05,1.5,0,2.26l0.02,0.38l-0.38-0.03
		c-1.59-0.13-3.2-0.02-4.8-0.03c-0.01,0.73-0.02,1.46-0.03,2.19v0.33l-0.33,0c-2.46,0.03-4.92,0.02-7.39,0.05
		c-0.06,4.25-0.07,8.5-0.06,12.75c0.01,4.35-0.03,8.7,0.07,13.05c2.45-0.07,4.91,0.15,7.36,0.05l0.35-0.01l-0.01,0.35
		c-0.02,0.73-0.01,1.46,0.02,2.19c2.44,0.03,4.89,0.03,7.33,0.03h0.3l0.03,0.3c0.07,0.74,0.08,1.49,0.07,2.24
		c2.73,0.02,5.47-0.03,8.2,0.05h0.01h0.01c3.28-0.09,6.57-0.03,9.86-0.07c-0.01-0.74,0-1.47,0.01-2.2l0-0.32l0.32-0.01
		c0.72-0.01,1.45-0.02,2.18-0.01c0.02-0.76,0-1.51,0.04-2.26l0.02-0.29l0.29-0.02c0.75-0.05,1.52-0.03,2.28-0.04
		c0.01-1.6-0.01-3.21,0.02-4.8l0-0.32l0.32,0c0.72-0.01,1.45-0.02,2.17-0.01c0.13-2.46,0.05-4.93,0.07-7.39l0-0.31l0.31-0.01
		c0.75-0.03,1.49-0.05,2.24-0.05c0.01-1.6,0-3.2,0.03-4.8l0.01-0.32l0.32,0c3.31-0.03,6.62-0.01,9.93-0.02
		c0-0.43,0.01-0.85,0.01-1.28c0-0.32,0-0.64,0-0.95l0-0.34l0.34,0c0.76,0.01,1.52,0.01,2.27-0.06
		C556.47,79.46,556.47,77.77,556.48,76.08L556.48,76.08z"/>
	<g>
		<path class="st4" d="M553.93,81.21c0.85,0.02,1.7,0.02,2.55-0.06c-0.01-1.69-0.01-3.38,0-5.08c-0.86-0.01-1.71-0.01-2.57-0.02
			C553.93,77.77,553.91,79.49,553.93,81.21z"/>
		<path class="st4" d="M528.1,70.9c0,0.86,0.01,1.71-0.02,2.57c-0.85-0.01-1.7-0.01-2.54,0c-0.02,0.86-0.02,1.72,0,2.59
			c9.46,0.01,18.92,0,28.38-0.01c-0.04-0.86-0.03-1.71-0.04-2.57c-7.71-0.04-15.43-0.02-23.14-0.02c-0.01-0.86,0-1.71-0.03-2.57
			C529.83,70.87,528.96,70.87,528.1,70.9z"/>
		<path class="st4" d="M523.41,107.05c3.29-0.09,6.58-0.03,9.87-0.07c-0.01-0.85,0-1.69,0.01-2.53c0.84-0.02,1.67-0.03,2.51-0.01
			c0.02-0.85-0.02-1.71,0.05-2.56c0.85-0.09,1.72-0.04,2.57-0.05c0.01-1.71-0.01-3.42,0.02-5.13c0.83-0.02,1.67-0.02,2.5-0.01
			c0.14-2.57,0.03-5.14,0.07-7.71c0.85-0.05,1.71-0.05,2.56-0.05c0.01-1.71-0.02-3.41,0.03-5.12c3.42-0.04,6.84-0.01,10.26-0.02
			c0.01-0.85,0.01-1.71,0-2.56c-7.72-0.01-15.45-0.02-23.17-0.02c-0.02,0.86-0.02,1.73,0,2.59c3.44,0.01,6.87-0.02,10.3,0
			c0.02,1.73,0.02,3.45,0.01,5.18c-3.44-0.04-6.88-0.04-10.32-0.02c-0.02,0.85-0.02,1.71,0,2.56c2.58,0.03,5.16,0,7.73,0
			c0,1.72,0.01,3.45,0,5.17c-3.44,0.02-6.88-0.04-10.32,0.02c0,0.84,0,1.69,0,2.53c2.58,0.05,5.16,0,7.74,0.02
			c0,0.85,0.1,1.71-0.07,2.56c-0.84,0.07-1.68,0.01-2.51,0.06c0.01,0.85,0.01,1.7,0,2.55c-6.01,0-12.03-0.01-18.04-0.01
			c-0.01-0.85-0.01-1.7,0-2.55c-2.59-0.02-5.18-0.07-7.77,0.03c-0.04,0.84-0.01,1.69,0.01,2.54c2.54,0.03,5.09,0.03,7.63,0.03
			c0.1,0.84,0.1,1.69,0.09,2.54C517.93,107.01,520.67,106.96,523.41,107.05z"/>
		<path class="st4" d="M530.67,65.77c0.01,1.71-0.02,3.42,0.02,5.13c0.86,0.02,1.71,0.01,2.56-0.01c0.02-2.58,0.03-5.16-0.01-7.74
			c-2.57,0-5.14-0.01-7.71,0c-0.02,0.86-0.08,1.73,0.02,2.59C527.26,65.86,528.97,65.7,530.67,65.77z"/>
		<path class="st4" d="M517.8,73.47c0.01-0.85,0.01-1.7,0.01-2.55c1.72-0.01,3.43,0.01,5.15-0.01c0.01-0.86,0.01-1.72,0.01-2.58
			c0.86,0.01,1.72,0.01,2.58-0.01c0.02-0.84,0.07-1.68-0.06-2.51l0,0c-0.85-0.2-1.72-0.08-2.58-0.08c-0.04,0.82-0.06,1.65-0.05,2.47
			c-1.69,0.15-3.39,0.07-5.08,0.1c-0.03,0.85-0.05,1.7-0.05,2.56c-1.7,0.01-3.4,0.01-5.1,0.04c-0.01,0.84-0.07,1.68,0,2.52
			C514.35,73.59,516.08,73.46,517.8,73.47z"/>
		<path class="st4" d="M507.46,101.89c0.05-0.88,0.04-1.76,0.03-2.63c-1.72-0.02-3.43,0.01-5.14-0.01c0-6.86-0.01-13.72,0.01-20.58
			c1.71-0.02,3.43,0.01,5.14-0.01c0.03-0.86,0.03-1.72,0.03-2.58c1.71,0,3.42,0.02,5.13-0.01c0-0.85,0.04-1.69-0.02-2.53l0,0
			c-1.71-0.18-3.44-0.04-5.15-0.05c-0.02,0.84-0.03,1.68-0.03,2.52c-2.57,0.04-5.14,0.02-7.71,0.05c-0.06,4.25-0.07,8.5-0.06,12.75
			c0.01,4.35-0.03,8.7,0.07,13.05C502.32,101.78,504.89,102.03,507.46,101.89z"/>
	</g>
</g>
</svg>
