<?xml version="1.0" encoding="utf-8"?>
<!-- Generator: Adobe Illustrator 24.3.0, SVG Export Plug-In . SVG Version: 6.00 Build 0)  -->
<svg version="1.1" id="Layer_1" xmlns="http://www.w3.org/2000/svg" xmlns:xlink="http://www.w3.org/1999/xlink" x="0px" y="0px"
	 viewBox="0 0 1000 400" style="enable-background:new 0 0 1000 400;" xml:space="preserve">
<style type="text/css">
	.st0{fill:#FCF7E8;stroke:#000000;stroke-width:10;stroke-miterlimit:10;}
	.st1{fill:#47469C;}
	.st2{fill:#231F20;}
</style>
<g>
	<path class="st0" d="M491.92,400L491.92,400c-0.01-66.67-65.14-112.05-118.75-137.97c-88.4-42.74-189.45-56.42-286.68-57.15v0
		c97.23-0.73,198.28-14.41,286.68-57.15c53.61-25.92,118.74-71.29,118.75-137.97h0c0.01,66.58,65.11,112.18,118.75,137.97
		c88.57,42.58,189.32,56.42,286.68,57.15v0c-97.36,0.73-198.11,14.57-286.68,57.15C557.02,287.82,491.92,333.42,491.92,400z"/>
</g>
<g id="Layer_2">
	<path id="path4109" class="st1" d="M605.3,156.96c-2.73,0.2-5.45,0.42-8.17,0.64l-1.15,0.09l-0.15-1.14
		c-0.33-2.71-0.6-5.44-0.86-8.17c-27.67,2.29-55.31,4.8-82.97,7.23l-1.19,0.1l-0.12-1.19c-0.23-2.29-0.45-4.6-0.71-6.91l-0.14-1.25
		l1.25-0.1c2.71-0.19,5.41-0.45,8.09-0.74c-0.75-9.39-1.53-18.79-2.51-28.15c-9.35,0.84-18.69,1.63-28.04,2.47
		c0.19,2.72,0.3,5.49,0.74,8.22l0.24,1.5l-1.51-0.09c-2.73-0.16-5.44,0.35-8.15,0.6c0.09,2.61,0.3,5.22,0.52,7.85l0.1,1.11
		l-1.11,0.19c-5.74,0.94-11.56,1.24-17.36,1.85c0.13,2.71,0.32,5.42,0.53,8.14l0.09,1.18l-1.17,0.12
		c-5.79,0.55-11.59,1.05-17.37,1.65c0.2,2.73,0.3,5.48,0.71,8.21l0.2,1.38l-1.38,0.02c-5.83,0.05-11.64,0.96-17.45,1.43
		c0.18,2.65,0.38,5.31,0.6,7.96l0.1,1.19l-1.19,0.12c-8.94,0.9-17.9,1.64-26.84,2.55c1.14,15.47,2.48,30.93,3.86,46.39
		c1.42,15.82,2.68,31.65,4.45,47.45c8.9-1.04,17.9-1.03,26.79-2.18l1.28-0.16l0.08,1.28c0.16,2.66,0.45,5.32,0.76,7.95
		c8.89-0.68,17.78-1.46,26.66-2.23l1.1-0.1l0.2,1.08c0.5,2.67,0.75,5.39,0.97,8.13c9.95-0.81,19.87-1.87,29.84-2.45l0.03,0l0.03,0
		c11.92-1.38,23.89-2.2,35.83-3.4c-0.26-2.68-0.46-5.35-0.66-8.02l-0.09-1.16l1.16-0.13c2.63-0.29,5.28-0.55,7.94-0.74
		c-0.16-2.76-0.49-5.48-0.57-8.22l-0.03-1.06l1.05-0.17c2.72-0.43,5.5-0.58,8.27-0.87c-0.49-5.83-1.05-11.65-1.48-17.48l-0.09-1.18
		l1.17-0.12c2.63-0.28,5.26-0.54,7.91-0.74c-0.31-8.99-1.41-17.93-2.09-26.88l-0.09-1.15l1.13-0.14c2.7-0.36,5.41-0.65,8.15-0.88
		c-0.48-5.82-1.04-11.63-1.43-17.45l-0.07-1.16l1.16-0.12c12.03-1.18,24.08-2.17,36.12-3.27c-0.12-1.55-0.25-3.11-0.38-4.66
		c-0.1-1.16-0.21-2.31-0.32-3.46l-0.12-1.23l1.24-0.09c2.77-0.2,5.53-0.45,8.25-0.95C606.37,169.26,605.81,163.11,605.3,156.96
		L605.3,156.96z"/>
	<g>
		<path class="st2" d="M597.67,176.45c3.1-0.21,6.2-0.47,9.26-1.04c-0.56-6.15-1.11-12.3-1.62-18.46c-3.12,0.23-6.24,0.49-9.35,0.74
			C596.58,163.94,597.06,170.2,597.67,176.45z"/>
		<path class="st2" d="M500.43,147.22c0.29,3.11,0.58,6.23,0.73,9.35c-3.09,0.23-6.17,0.5-9.25,0.83c0.21,3.14,0.49,6.27,0.83,9.4
			c34.41-2.99,68.8-6.08,103.2-9.11c-0.41-3.1-0.67-6.21-0.97-9.32c-28.07,2.32-56.11,4.88-84.16,7.34
			c-0.32-3.11-0.56-6.23-0.95-9.33C506.72,146.54,503.57,146.84,500.43,147.22z"/>
		<path class="st2" d="M494.96,280.17c11.93-1.38,23.91-2.2,35.86-3.4c-0.29-3.07-0.54-6.14-0.76-9.21
			c3.03-0.35,6.07-0.64,9.11-0.86c-0.18-3.11-0.62-6.19-0.62-9.31c3.07-0.6,6.23-0.68,9.34-1c-0.52-6.23-1.14-12.45-1.58-18.67
			c3.03-0.33,6.05-0.62,9.09-0.85c-0.33-9.38-1.53-18.7-2.2-28.06c3.09-0.45,6.19-0.73,9.29-1c-0.52-6.21-1.15-12.41-1.54-18.63
			c12.43-1.23,24.88-2.24,37.31-3.38c-0.24-3.11-0.5-6.21-0.81-9.31c-28.1,2.42-56.19,4.88-84.28,7.35
			c0.19,3.15,0.47,6.29,0.84,9.42c12.5-1.05,24.98-2.27,37.48-3.3c0.63,6.27,1.17,12.55,1.69,18.83
			c-12.52,0.95-25.03,2.06-37.52,3.23c0.21,3.11,0.49,6.21,0.83,9.32c9.38-0.72,18.75-1.64,28.12-2.46
			c0.57,6.27,1.14,12.54,1.66,18.81c-12.51,1.18-25.04,2.07-37.54,3.38c0.28,3.06,0.55,6.13,0.82,9.19
			c9.4-0.64,18.77-1.64,28.16-2.4c0.26,3.1,0.9,6.2,0.58,9.32c-3.02,0.51-6.09,0.59-9.12,1.03c0.31,3.09,0.59,6.18,0.82,9.27
			c-21.88,1.91-43.75,3.82-65.62,5.74c-0.3-3.1-0.57-6.19-0.81-9.29c-9.43,0.74-18.87,1.41-28.25,2.58
			c0.12,3.08,0.49,6.15,0.86,9.22c9.26-0.71,18.52-1.52,27.77-2.32c0.65,3.03,0.91,6.11,1.16,9.2
			C475.04,281.81,484.98,280.75,494.96,280.17z"/>
		<path class="st2" d="M508.15,127.72c0.6,6.21,1.04,12.45,1.73,18.66c3.12-0.18,6.22-0.51,9.32-0.85
			c-0.75-9.39-1.53-18.78-2.51-28.15c-9.35,0.84-18.69,1.62-28.03,2.46c0.22,3.14,0.25,6.32,0.89,9.43
			C495.77,129.15,501.93,128.04,508.15,127.72z"/>
		<path class="st2" d="M463.82,159.88c-0.23-3.1-0.5-6.2-0.79-9.29c6.23-0.59,12.48-1.06,18.71-1.68c-0.23-3.14-0.52-6.26-0.77-9.4
			c3.14-0.25,6.27-0.53,9.39-0.87c-0.18-3.04-0.28-6.12-1.01-9.09l0,0c-3.14-0.44-6.27,0.25-9.39,0.54c0.11,3,0.32,6.01,0.59,9
			c-6.09,1.1-12.29,1.34-18.44,1.99c0.15,3.11,0.36,6.21,0.62,9.31c-6.18,0.6-12.36,1.13-18.54,1.77c0.22,3.05,0.27,6.12,0.82,9.15
			C451.3,161.39,457.56,160.38,463.82,159.88z"/>
		<path class="st2" d="M435.3,266.52c-0.1-3.21-0.42-6.4-0.75-9.59c-6.24,0.48-12.46,1.15-18.7,1.6
			c-2.21-24.95-4.42-49.9-6.56-74.86c6.22-0.64,12.46-1.07,18.68-1.68c-0.17-3.14-0.44-6.27-0.73-9.39
			c6.22-0.57,12.45-1.04,18.67-1.67c-0.25-3.07-0.38-6.17-0.89-9.21v0c-6.26-0.09-12.5,0.96-18.75,1.46
			c0.21,3.05,0.43,6.11,0.69,9.16c-9.33,0.96-18.68,1.72-28.02,2.67c1.14,15.47,2.48,30.93,3.86,46.38
			c1.42,15.82,2.67,31.66,4.45,47.45C416.57,267.76,426,267.85,435.3,266.52z"/>
	</g>
</g>
</svg>
