<?xml version="1.0" encoding="utf-8"?>
<!-- Generator: Adobe Illustrator 24.3.0, SVG Export Plug-In . SVG Version: 6.00 Build 0)  -->
<svg version="1.1" xmlns="http://www.w3.org/2000/svg" xmlns:xlink="http://www.w3.org/1999/xlink" x="0px" y="0px"
	 viewBox="0 0 281.93 281.93" style="enable-background:new 0 0 281.93 281.93;" xml:space="preserve">
<style type="text/css">
	.st0{fill:none;stroke:#000000;stroke-width:0.9193;stroke-miterlimit:10;}
	.st1{display:none;}
	.st2{display:inline;}
</style>
<g id="Layer_1">
	<g>
		<path class="st0" d="M129.42,242.08l-48.66,25.58c-18.21,9.57-39.49-5.89-36.01-26.17l9.29-54.19c1.38-8.05-1.29-16.27-7.14-21.97
			L7.52,126.96c-14.73-14.36-6.6-39.38,13.76-42.34l54.41-7.91c8.08-1.17,15.07-6.25,18.69-13.58l24.33-49.3
			c9.1-18.45,35.41-18.45,44.52,0l24.33,49.3c3.62,7.33,10.6,12.4,18.69,13.58l54.41,7.91c20.36,2.96,28.49,27.98,13.76,42.34
			l-39.37,38.38c-5.85,5.7-8.52,13.92-7.14,21.97l9.29,54.19c3.48,20.28-17.8,35.74-36.01,26.17l-48.66-25.58
			C145.28,238.27,136.65,238.27,129.42,242.08z"/>
		<path d="M134.67,193.47l-26.51,13.94c-9.92,5.22-21.52-3.21-19.62-14.26l5.06-29.52c0.75-4.39-0.7-8.86-3.89-11.97l-21.45-20.91
			c-8.03-7.82-3.6-21.46,7.5-23.07l29.64-4.31c4.4-0.64,8.21-3.41,10.18-7.4l13.26-26.86c4.96-10.05,19.29-10.05,24.25,0
			l13.26,26.86c1.97,3.99,5.78,6.76,10.18,7.4l29.64,4.31c11.09,1.61,15.52,15.24,7.5,23.07l-21.45,20.91
			c-3.19,3.11-4.64,7.58-3.89,11.97l5.06,29.52c1.89,11.05-9.7,19.47-19.62,14.26l-26.51-13.94
			C143.32,191.4,138.61,191.4,134.67,193.47z"/>
	</g>
</g>
<g id="Layer_1_copy" class="st1">
	<path class="st2" d="M280.04,141.89c-117.78,12.62-127.37,22.26-139.99,140.04C127.42,164.15,117.78,154.51,0,141.89
		C117.78,129.26,127.42,119.67,140.04,1.9C152.67,119.67,162.26,129.26,280.04,141.89z"/>
</g>
</svg>
