<?xml version="1.0" encoding="utf-8"?>
<!-- Generator: Adobe Illustrator 24.3.0, SVG Export Plug-In . SVG Version: 6.00 Build 0)  -->
<svg version="1.1" xmlns="http://www.w3.org/2000/svg" xmlns:xlink="http://www.w3.org/1999/xlink" x="0px" y="0px"
	 viewBox="0 0 1000 1000" style="enable-background:new 0 0 1000 1000;" xml:space="preserve">
<style type="text/css">
	.st0{stroke:#000000;stroke-width:5;stroke-miterlimit:10;}
	.st1{fill:#FCF7E8;stroke:#000000;stroke-width:5;stroke-miterlimit:10;}
	.st2{font-family:'MyriadPro-Regular';}
	.st3{font-size:76.347px;}
	.st4{display:none;}
	.st5{display:inline;stroke:#000000;stroke-width:5;stroke-miterlimit:10;}
	.st6{display:inline;fill:#FCF7E8;stroke:#000000;stroke-width:5;stroke-miterlimit:10;}
	.st7{display:inline;}
</style>
<g id="Layer_1">
	<polygon class="st0" points="774.39,608.91 540.09,587.45 343.51,696.24 344.7,549.96 142.11,487.6 377.15,418.65 448.52,271.32 
		592.59,374.98 839.29,346.29 693.29,479.31 	"/>
	<polygon class="st1" points="774.39,578.49 540.09,557.03 343.51,665.82 344.7,519.54 142.11,457.18 377.15,388.24 448.52,240.9 
		592.59,344.57 839.29,315.87 693.29,448.89 	"/>
	<text transform="matrix(1.7253 -0.32 0.2562 0.9666 291.9234 483.7775)" class="st2 st3">creative</text>
</g>
<g id="Layer_2" class="st4">
	<polygon class="st5" points="782.94,601.45 159.72,601.45 279.24,353.59 902.47,353.59 	"/>
	<polygon class="st6" points="767.58,578.54 144.35,578.54 263.88,330.68 887.1,330.68 	"/>
	<g class="st7">
		<g>
			<path d="M239.18,500l25.86-91.92h16.32L307.3,500h-17.24l-20.25-79.18h6.53L256.08,500H239.18z M253.32,482.01l4.27-19.04h28.62
				l4.27,19.04H253.32z"/>
			<path d="M330.99,501.18c-4.07,0-7.81-1.51-11.21-4.53c-3.4-3.02-6.1-7.27-8.08-12.74c-1.98-5.47-2.97-11.97-2.97-19.5
				c0-7.62,0.99-14.16,2.97-19.63c1.98-5.47,4.67-9.72,8.08-12.74c3.4-3.02,7.14-4.53,11.21-4.53c3.85,0,7.14,1.34,9.88,4
				c2.73,2.67,4.8,6.72,6.19,12.15c1.39,5.43,2.09,12.34,2.09,20.75s-0.66,15.32-1.97,20.75c-1.31,5.43-3.32,9.46-6.03,12.08
				C338.45,499.87,335.06,501.18,330.99,501.18z M334.34,481.35c1.79,0,3.39-0.66,4.81-1.97c1.42-1.31,2.55-3.26,3.39-5.84
				c0.84-2.58,1.26-5.62,1.26-9.13c0-3.76-0.42-6.87-1.26-9.32c-0.84-2.45-1.97-4.33-3.39-5.65c-1.42-1.31-3.03-1.97-4.81-1.97
				c-1.84,0-3.47,0.66-4.9,1.97c-1.42,1.31-2.55,3.2-3.39,5.65c-0.84,2.45-1.26,5.56-1.26,9.32c0,3.5,0.42,6.54,1.26,9.13
				c0.84,2.58,1.97,4.53,3.39,5.84C330.86,480.7,332.5,481.35,334.34,481.35z M344.3,500v-12.21l0.08-23.51l-0.84-23.51v-38.21h15.9
				V500H344.3z"/>
			<path d="M383.97,501.18c-3.57,0-6.63-0.96-9.16-2.89c-2.54-1.92-4.46-4.55-5.77-7.88c-1.31-3.33-1.97-7-1.97-11.03
				c0-4.38,0.71-8.18,2.13-11.42c1.42-3.24,3.63-5.71,6.61-7.42c2.98-1.71,6.79-2.56,11.42-2.56h10.71v13.13h-8.54
				c-2.57,0-4.37,0.61-5.4,1.84c-1.03,1.23-1.55,2.98-1.55,5.25c0,2.1,0.53,3.83,1.59,5.19c1.06,1.36,2.51,2.04,4.35,2.04
				c1.79,0,3.39-0.68,4.81-2.04c1.42-1.36,2.44-3.44,3.05-6.24l2.18,9.19c-0.84,4.9-2.47,8.6-4.9,11.1
				C391.12,499.93,387.93,501.18,383.97,501.18z M397.36,500v-13.26l-1.09-3.28v-24.42c0-3.94-0.77-6.98-2.3-9.13
				c-1.54-2.14-3.98-3.22-7.32-3.22c-2.18,0-4.39,0.57-6.65,1.71c-2.26,1.14-4.17,2.58-5.73,4.33l-5.27-16.81
				c2.57-2.63,5.65-4.68,9.25-6.17c3.6-1.49,7.18-2.23,10.75-2.23c7.37,0,13.07,2.67,17.12,8.01c4.04,5.34,6.07,13.66,6.07,24.95
				V500H397.36z"/>
			<path d="M422.21,525.48v-96.78h15.23v12.21l-0.17,23.64l0.84,23.51v37.43H422.21z M450.75,501.18c-3.85,0-7.14-1.33-9.88-4
				c-2.73-2.67-4.81-6.72-6.24-12.15c-1.42-5.43-2.13-12.26-2.13-20.49c0-8.58,0.67-15.56,2.01-20.94
				c1.34-5.38,3.36-9.41,6.07-12.08c2.71-2.67,6.1-4,10.17-4c4.13,0,7.88,1.53,11.26,4.6c3.37,3.07,6.05,7.33,8.03,12.8
				c1.98,5.47,2.97,12.02,2.97,19.63c0,7.44-0.99,13.92-2.97,19.44c-1.98,5.51-4.66,9.76-8.03,12.74
				C458.63,499.69,454.88,501.18,450.75,501.18z M447.41,481.35c1.79,0,3.39-0.66,4.81-1.97c1.42-1.31,2.57-3.24,3.43-5.78
				c0.86-2.54,1.3-5.56,1.3-9.06c0-3.76-0.43-6.89-1.3-9.39c-0.87-2.5-2.01-4.4-3.43-5.71c-1.42-1.31-3.03-1.97-4.81-1.97
				c-1.79,0-3.39,0.66-4.81,1.97c-1.42,1.31-2.57,3.22-3.43,5.71c-0.87,2.5-1.3,5.63-1.3,9.39c0,3.5,0.43,6.52,1.3,9.06
				c0.86,2.54,2.01,4.46,3.43,5.78C444.02,480.7,445.62,481.35,447.41,481.35z"/>
			<path d="M475.61,450.1v-18.65h32.89v18.65H475.61z M500.64,501.18c-5.8,0-10.32-2.25-13.56-6.76
				c-3.24-4.51-4.85-11.31-4.85-20.42V412.8h15.9v60.8c0,2.71,0.43,4.77,1.3,6.17c0.86,1.4,2.02,2.1,3.47,2.1
				c1.84,0,3.46-0.74,4.85-2.23l4.02,17.33c-1.45,1.49-3.14,2.56-5.06,3.22C504.78,500.85,502.75,501.18,500.64,501.18z"/>
			<path d="M532.1,501.18c-3.57,0-6.63-0.96-9.16-2.89c-2.54-1.92-4.46-4.55-5.78-7.88c-1.31-3.33-1.97-7-1.97-11.03
				c0-4.38,0.71-8.18,2.13-11.42c1.42-3.24,3.63-5.71,6.61-7.42c2.98-1.71,6.79-2.56,11.42-2.56h10.71v13.13h-8.54
				c-2.57,0-4.37,0.61-5.4,1.84c-1.03,1.23-1.55,2.98-1.55,5.25c0,2.1,0.53,3.83,1.59,5.19c1.06,1.36,2.51,2.04,4.35,2.04
				c1.79,0,3.39-0.68,4.81-2.04c1.42-1.36,2.44-3.44,3.05-6.24l2.18,9.19c-0.84,4.9-2.47,8.6-4.9,11.1
				C539.26,499.93,536.06,501.18,532.1,501.18z M545.49,500v-13.26l-1.09-3.28v-24.42c0-3.94-0.77-6.98-2.3-9.13
				c-1.54-2.14-3.98-3.22-7.32-3.22c-2.18,0-4.39,0.57-6.65,1.71c-2.26,1.14-4.17,2.58-5.73,4.33l-5.27-16.81
				c2.57-2.63,5.65-4.68,9.25-6.17c3.6-1.49,7.18-2.23,10.75-2.23c7.37,0,13.07,2.67,17.12,8.01c4.04,5.34,6.07,13.66,6.07,24.95
				V500H545.49z"/>
			<path d="M570.35,500v-97.44h15.9v38.21l-0.84,23.51l0.17,23.51V500H570.35z M598.89,501.18c-4.07,0-7.46-1.31-10.17-3.94
				c-2.71-2.63-4.73-6.65-6.07-12.08c-1.34-5.43-2.01-12.34-2.01-20.75s0.71-15.32,2.13-20.75c1.42-5.43,3.5-9.48,6.23-12.15
				c2.73-2.67,6.03-4,9.88-4c4.13,0,7.88,1.51,11.26,4.53c3.38,3.02,6.05,7.27,8.04,12.74c1.98,5.47,2.97,12.02,2.97,19.63
				c0,7.53-0.99,14.03-2.97,19.5c-1.98,5.47-4.66,9.72-8.04,12.74C606.77,499.67,603.02,501.18,598.89,501.18z M595.54,481.35
				c1.79,0,3.39-0.66,4.81-1.97c1.42-1.31,2.57-3.26,3.43-5.84c0.86-2.58,1.3-5.62,1.3-9.13c0-3.76-0.43-6.87-1.3-9.32
				c-0.87-2.45-2.01-4.33-3.43-5.65c-1.42-1.31-3.03-1.97-4.81-1.97c-1.79,0-3.39,0.66-4.81,1.97c-1.42,1.31-2.57,3.2-3.43,5.65
				c-0.87,2.45-1.3,5.56-1.3,9.32c0,3.5,0.43,6.54,1.3,9.13c0.86,2.58,2.01,4.53,3.43,5.84
				C592.15,480.7,593.75,481.35,595.54,481.35z"/>
			<path d="M636.47,420.95c-2.96,0-5.32-1.27-7.07-3.81c-1.76-2.54-2.64-5.69-2.64-9.46c0-3.76,0.88-6.89,2.64-9.39
				c1.76-2.5,4.11-3.74,7.07-3.74c2.9,0,5.24,1.18,7.03,3.55c1.78,2.36,2.68,5.38,2.68,9.06c0,3.94-0.88,7.22-2.64,9.85
				C641.78,419.63,639.42,420.95,636.47,420.95z M628.52,500v-71.31h15.9V500H628.52z"/>
			<path d="M654.71,500v-97.44h15.9V500H654.71z"/>
			<path d="M688.86,420.95c-2.96,0-5.32-1.27-7.07-3.81c-1.76-2.54-2.64-5.69-2.64-9.46c0-3.76,0.88-6.89,2.64-9.39
				c1.76-2.5,4.11-3.74,7.07-3.74c2.9,0,5.24,1.18,7.03,3.55c1.78,2.36,2.68,5.38,2.68,9.06c0,3.94-0.88,7.22-2.64,9.85
				C694.17,419.63,691.81,420.95,688.86,420.95z M680.91,500v-71.31h15.9V500H680.91z"/>
			<path d="M702.33,450.1v-18.65h32.89v18.65H702.33z M727.35,501.18c-5.8,0-10.32-2.25-13.56-6.76
				c-3.24-4.51-4.85-11.31-4.85-20.42V412.8h15.9v60.8c0,2.71,0.43,4.77,1.3,6.17c0.86,1.4,2.02,2.1,3.47,2.1
				c1.84,0,3.46-0.74,4.85-2.23l4.02,17.33c-1.45,1.49-3.14,2.56-5.06,3.22C731.5,500.85,729.47,501.18,727.35,501.18z"/>
			<path d="M758.49,503.02l-20-74.33h16.32l14.73,57.65L758.49,503.02z M752.29,526.66c-2.34,0-4.74-0.59-7.2-1.77
				c-2.46-1.18-4.46-2.74-6.03-4.66l5.61-17.33c0.95,1.23,2.05,2.21,3.31,2.96c1.26,0.74,2.5,1.12,3.72,1.12
				c1.79,0,3.17-0.61,4.14-1.84c0.98-1.23,1.83-3.2,2.55-5.91l2.09-8.14l1.25-2.5l15.4-59.88h15.06l-19.5,74.19
				c-1.62,6.13-3.43,10.92-5.44,14.38c-2.01,3.46-4.26,5.89-6.74,7.29C758.05,525.96,755.31,526.66,752.29,526.66z"/>
		</g>
	</g>
</g>
<g id="Layer_3" class="st4">
	<polygon class="st5" points="647.84,723.4 520.67,619.74 469.94,775.76 427.99,617.16 295.23,713.56 354.52,560.58 190.46,560.54 
		328.34,471.63 195.63,375.17 359.44,384.28 308.78,228.23 435.95,331.89 486.68,175.87 528.63,334.48 661.39,238.07 602.1,391.05 
		766.16,391.09 628.28,480 760.99,576.46 597.18,567.35 	"/>
	<polygon class="st6" points="714.87,584.39 566.81,561.26 598.71,707.68 492.52,601.94 432.26,739.15 408.51,591.18 279.1,666.77 
		346.86,533.1 197.74,518.19 331.13,449.88 219.25,350.16 367.32,373.3 335.42,226.87 441.61,332.62 501.87,195.41 525.62,343.37 
		655.02,267.79 587.27,401.46 736.38,416.37 603,484.68 	"/>
	<g class="st7">
		<g>
			<path d="M356.76,435.48c-4.14,0-7.74-0.88-10.8-2.63c-3.05-1.75-5.43-4.15-7.11-7.2c-1.69-3.05-2.53-6.49-2.53-10.33
				c0-3.94,0.82-7.43,2.47-10.48c1.64-3.05,3.91-5.44,6.79-7.16s6.16-2.59,9.84-2.59c3.42,0,6.52,0.8,9.32,2.41
				c2.8,1.61,5.04,3.91,6.73,6.91c1.69,3,2.53,6.66,2.53,10.98c0,0.48-0.02,1.03-0.06,1.66c-0.04,0.62-0.09,1.2-0.13,1.73h-27.49
				v-7.2h21.02l-4.61,2.02c0.04-1.73-0.25-3.25-0.87-4.57c-0.62-1.32-1.46-2.34-2.53-3.06c-1.07-0.72-2.33-1.08-3.78-1.08
				c-1.5,0-2.8,0.36-3.91,1.08c-1.11,0.72-1.95,1.74-2.53,3.06c-0.58,1.32-0.87,2.87-0.87,4.64v2.09c0,1.92,0.35,3.58,1.06,4.97
				c0.71,1.39,1.72,2.46,3.04,3.2c1.32,0.75,2.9,1.12,4.74,1.12c1.75,0,3.22-0.28,4.42-0.83c1.2-0.55,2.39-1.4,3.59-2.56l6.34,7.56
				c-1.62,2.02-3.65,3.56-6.09,4.64C362.91,434.94,360.05,435.48,356.76,435.48z"/>
			<path d="M390.59,435.48c-2.73,0-5.07-0.53-7.02-1.58c-1.94-1.06-3.42-2.5-4.42-4.32c-1-1.82-1.51-3.84-1.51-6.05
				c0-2.4,0.54-4.49,1.63-6.26c1.09-1.78,2.78-3.13,5.06-4.07c2.29-0.94,5.2-1.4,8.75-1.4h8.2v7.2h-6.54
				c-1.97,0-3.34,0.34-4.13,1.01c-0.79,0.67-1.19,1.63-1.19,2.88c0,1.15,0.41,2.1,1.22,2.84c0.81,0.74,1.92,1.12,3.33,1.12
				c1.37,0,2.59-0.37,3.68-1.12c1.09-0.74,1.87-1.88,2.34-3.42l1.67,5.04c-0.64,2.69-1.89,4.72-3.75,6.08
				C396.07,434.8,393.62,435.48,390.59,435.48z M400.84,434.84v-7.27l-0.83-1.8v-13.39c0-2.16-0.59-3.83-1.76-5
				c-1.18-1.18-3.04-1.76-5.61-1.76c-1.67,0-3.36,0.31-5.09,0.94c-1.73,0.62-3.19,1.42-4.39,2.38l-4.04-9.22
				c1.96-1.44,4.33-2.57,7.08-3.38c2.76-0.82,5.5-1.22,8.23-1.22c5.64,0,10.01,1.46,13.1,4.39c3.1,2.93,4.65,7.49,4.65,13.68v21.67
				H400.84z"/>
			<path d="M434.68,432.82c-3.03,0-5.84-0.78-8.43-2.34c-2.58-1.56-4.66-3.74-6.22-6.55c-1.56-2.81-2.34-6.13-2.34-9.97
				c0-3.84,0.78-7.18,2.34-10.01c1.56-2.83,3.63-5.02,6.22-6.55c2.58-1.54,5.39-2.3,8.43-2.3c2.99,0,5.53,0.67,7.63,2.02
				c2.09,1.34,3.68,3.42,4.77,6.23s1.63,6.35,1.63,10.62c0,4.27-0.54,7.81-1.63,10.62c-1.09,2.81-2.68,4.88-4.77,6.23
				C440.21,432.15,437.67,432.82,434.68,432.82z M436.86,449.45c-3.33,0-6.51-0.43-9.55-1.3c-3.03-0.86-5.6-2.14-7.69-3.82l4.42-9.5
				c1.45,1.25,3.26,2.24,5.41,2.99c2.16,0.74,4.28,1.12,6.38,1.12c3.25,0,5.58-0.8,7.02-2.41c1.43-1.61,2.15-3.95,2.15-7.02v-4.54
				l0.64-11.02v-10.94v-7.27h11.53v31.97c0,7.39-1.76,12.86-5.29,16.42C448.36,447.68,443.35,449.45,436.86,449.45z M437.62,421.95
				c1.49,0,2.8-0.33,3.91-1.01c1.11-0.67,2-1.61,2.66-2.81c0.66-1.2,0.99-2.59,0.99-4.18s-0.33-2.98-0.99-4.18
				c-0.66-1.2-1.55-2.12-2.66-2.77c-1.11-0.65-2.41-0.97-3.91-0.97c-1.45,0-2.75,0.32-3.88,0.97c-1.13,0.65-2.04,1.57-2.72,2.77
				c-0.68,1.2-1.03,2.59-1.03,4.18s0.34,2.98,1.03,4.18c0.68,1.2,1.59,2.14,2.72,2.81C434.88,421.61,436.17,421.95,437.62,421.95z"
				/>
			<path d="M483.31,435.48c-4.14,0-7.74-0.88-10.8-2.63c-3.05-1.75-5.43-4.15-7.11-7.2c-1.69-3.05-2.53-6.49-2.53-10.33
				c0-3.94,0.82-7.43,2.47-10.48c1.64-3.05,3.91-5.44,6.79-7.16s6.16-2.59,9.84-2.59c3.42,0,6.52,0.8,9.32,2.41
				c2.8,1.61,5.04,3.91,6.73,6.91c1.69,3,2.53,6.66,2.53,10.98c0,0.48-0.02,1.03-0.06,1.66c-0.04,0.62-0.09,1.2-0.13,1.73h-27.49
				v-7.2h21.02l-4.61,2.02c0.04-1.73-0.25-3.25-0.87-4.57c-0.62-1.32-1.46-2.34-2.53-3.06c-1.07-0.72-2.33-1.08-3.78-1.08
				c-1.5,0-2.8,0.36-3.91,1.08c-1.11,0.72-1.95,1.74-2.53,3.06c-0.58,1.32-0.87,2.87-0.87,4.64v2.09c0,1.92,0.35,3.58,1.06,4.97
				c0.71,1.39,1.72,2.46,3.04,3.2c1.32,0.75,2.9,1.12,4.74,1.12c1.75,0,3.22-0.28,4.42-0.83c1.2-0.55,2.39-1.4,3.59-2.56l6.34,7.56
				c-1.62,2.02-3.65,3.56-6.09,4.64C489.46,434.94,486.6,435.48,483.31,435.48z"/>
			<path d="M506.19,434.84v-39.1h11.66v11.45l-1.79-3.24c1.07-2.93,2.74-5.14,5.03-6.62c2.29-1.49,5.07-2.23,8.36-2.23v12.38
				c-0.55-0.1-1.05-0.16-1.47-0.18c-0.43-0.02-0.86-0.04-1.28-0.04c-2.48,0-4.48,0.76-6.02,2.27c-1.54,1.51-2.31,3.97-2.31,7.38
				v17.93H506.19z"/>
			<path d="M334.85,493.88v-10.22h25.18v10.22H334.85z M354,521.88c-4.44,0-7.9-1.24-10.38-3.71c-2.48-2.47-3.72-6.2-3.72-11.2
				v-33.55h12.17v33.34c0,1.49,0.33,2.62,0.99,3.38c0.66,0.77,1.55,1.15,2.66,1.15c1.41,0,2.65-0.41,3.72-1.22l3.08,9.5
				c-1.11,0.82-2.4,1.4-3.88,1.76C357.18,521.7,355.63,521.88,354,521.88z"/>
			<path d="M384.57,521.88c-3.8,0-7.18-0.86-10.12-2.59c-2.95-1.73-5.27-4.12-6.95-7.16c-1.69-3.05-2.53-6.52-2.53-10.4
				c0-3.94,0.84-7.43,2.53-10.48c1.69-3.05,4-5.44,6.95-7.16c2.95-1.73,6.32-2.59,10.12-2.59c3.8,0,7.19,0.86,10.16,2.59
				c2.97,1.73,5.3,4.12,6.98,7.16c1.69,3.05,2.53,6.54,2.53,10.48c0,3.89-0.84,7.36-2.53,10.4c-1.69,3.05-4.02,5.44-6.98,7.16
				C391.76,521.02,388.37,521.88,384.57,521.88z M384.57,511.01c1.37,0,2.59-0.36,3.68-1.08c1.09-0.72,1.96-1.79,2.63-3.2
				c0.66-1.42,0.99-3.11,0.99-5.08c0-2.02-0.33-3.7-0.99-5.04c-0.66-1.34-1.54-2.38-2.63-3.1c-1.09-0.72-2.32-1.08-3.68-1.08
				c-1.37,0-2.6,0.36-3.68,1.08c-1.09,0.72-1.97,1.75-2.63,3.1c-0.66,1.34-0.99,3.02-0.99,5.04c0,1.97,0.33,3.66,0.99,5.08
				c0.66,1.42,1.54,2.48,2.63,3.2C381.97,510.65,383.2,511.01,384.57,511.01z"/>
		</g>
	</g>
</g>
</svg>
