<?xml version="1.0" encoding="utf-8"?>
<!-- Generator: Adobe Illustrator 24.3.0, SVG Export Plug-In . SVG Version: 6.00 Build 0)  -->
<svg version="1.1" xmlns="http://www.w3.org/2000/svg" xmlns:xlink="http://www.w3.org/1999/xlink" x="0px" y="0px"
	 viewBox="0 0 281.93 281.93" style="enable-background:new 0 0 281.93 281.93;" xml:space="preserve">
<style type="text/css">
	.st0{display:none;}
	.st1{display:inline;}
	.st2{fill:none;stroke:#000000;stroke-width:0.9193;stroke-miterlimit:10;}
</style>
<g id="Layer_1" class="st0">
	<g class="st1">
		<path class="st2" d="M205.81,139.16l-4.52,2.38c-1.69,0.89-3.67-0.55-3.34-2.43l0.86-5.03c0.13-0.75-0.12-1.51-0.66-2.04
			l-3.66-3.56c-1.37-1.33-0.61-3.66,1.28-3.93l5.05-0.73c0.75-0.11,1.4-0.58,1.74-1.26l2.26-4.58c0.85-1.71,3.29-1.71,4.13,0
			l2.26,4.58c0.34,0.68,0.98,1.15,1.74,1.26l5.05,0.73c1.89,0.27,2.64,2.6,1.28,3.93l-3.66,3.56c-0.54,0.53-0.79,1.29-0.66,2.04
			l0.86,5.03c0.32,1.88-1.65,3.32-3.34,2.43l-4.52-2.38C207.29,138.81,206.49,138.81,205.81,139.16z"/>
		<path d="M206.3,134.65l-2.46,1.29c-0.92,0.48-2-0.3-1.82-1.32l0.47-2.74c0.07-0.41-0.07-0.82-0.36-1.11l-1.99-1.94
			c-0.75-0.73-0.33-1.99,0.7-2.14l2.75-0.4c0.41-0.06,0.76-0.32,0.95-0.69l1.23-2.49c0.46-0.93,1.79-0.93,2.25,0l1.23,2.49
			c0.18,0.37,0.54,0.63,0.95,0.69l2.75,0.4c1.03,0.15,1.44,1.42,0.7,2.14l-1.99,1.94c-0.3,0.29-0.43,0.7-0.36,1.11l0.47,2.74
			c0.18,1.03-0.9,1.81-1.82,1.32l-2.46-1.29C207.11,134.46,206.67,134.46,206.3,134.65z"/>
	</g>
</g>
<g id="Layer_1_copy">
	<path d="M280.04,141.89c-117.78,12.62-127.37,22.26-139.99,140.04C127.42,164.15,117.78,154.51,0,141.89
		C117.78,129.26,127.42,119.67,140.04,1.9C152.67,119.67,162.26,129.26,280.04,141.89z"/>
</g>
</svg>
