<?xml version="1.0" encoding="utf-8"?>
<!-- Generator: Adobe Illustrator 24.3.0, SVG Export Plug-In . SVG Version: 6.00 Build 0)  -->
<svg version="1.1" xmlns="http://www.w3.org/2000/svg" xmlns:xlink="http://www.w3.org/1999/xlink" x="0px" y="0px"
	 viewBox="0 0 281.93 281.93" style="enable-background:new 0 0 281.93 281.93;" xml:space="preserve">
<style type="text/css">
	.st0{display:none;}
	.st1{display:inline;}
	.st2{fill:#FFFFFF;stroke:#000000;stroke-width:0.5674;stroke-miterlimit:10;}
	.st3{fill:none;stroke:#000000;stroke-width:0.9193;stroke-miterlimit:10;}
	.st4{fill:#FFFFFF;stroke:#000000;stroke-width:3.8017;stroke-miterlimit:10;}
	.st5{fill:#FFFFFF;stroke:#000000;stroke-width:1.821;stroke-miterlimit:10;}
	.st6{fill:#FFFFFF;}
	.st7{fill:#FFFFFF;stroke:#000000;stroke-width:2.3804;stroke-miterlimit:10;}
</style>
<g id="Layer_1" class="st0">
	<path class="st1" d="M220.11,155.19c-0.92-3.64-7.59-5.1-14.89-3.25c-7.3,1.84-12.48,6.29-11.56,9.93
		c0.92,3.64,7.59,5.1,14.89,3.25C215.86,163.28,221.03,158.83,220.11,155.19z M208.49,164.88c-7.03,1.78-11.71,0.37-12.59-3.13
		c-0.89-3.51,2.35-7.79,9.38-9.56c7.03-1.78,11.6-0.37,12.49,3.13C218.66,158.82,215.52,163.1,208.49,164.88z"/>
	<path class="st1" d="M222.58,87.38c-13.2,1.41-14.27,2.5-15.69,15.69c-1.41-13.2-2.5-14.28-15.69-15.69
		c13.2-1.41,14.28-2.49,15.69-15.69C208.3,84.89,209.38,85.97,222.58,87.38z"/>
	<g class="st1">
		<path d="M206.95,199.84c-0.09-0.06-0.19-0.11-0.25-0.19c-0.1-0.13-0.18-0.28-0.27-0.42c-0.08,0.04-0.17,0.11-0.27,0.15
			c-0.1,0.04-0.22,0.05-0.29,0.07c0.06,0.16,0.15,0.32,0.19,0.49c0.04,0.18-0.03,0.35-0.15,0.5c-0.19,0.23-0.51,0.3-0.78,0.18
			c-0.27-0.12-0.43-0.38-0.41-0.68c0.03-0.34,0.23-0.53,0.64-0.63c-0.11-0.17-0.23-0.35-0.33-0.51c-0.18,0.06-0.37,0.13-0.54,0.19
			c0.06,0.14,0.15,0.3,0.19,0.47c0.04,0.19-0.03,0.36-0.16,0.51c-0.2,0.23-0.52,0.29-0.8,0.17c-0.26-0.12-0.42-0.41-0.39-0.69
			c0.05-0.34,0.27-0.54,0.64-0.6c-0.11-0.18-0.23-0.37-0.35-0.56c-0.17,0.14-0.38,0.22-0.65,0.18c0.34,0.38,0.39,0.67,0.19,0.96
			c-0.18,0.25-0.5,0.35-0.79,0.23c-0.29-0.11-0.45-0.4-0.4-0.72c0.05-0.33,0.29-0.52,0.72-0.56c-0.3-0.26-0.31-0.29-0.41-0.7
			c-0.28,0.26-0.59,0.35-0.93,0.16c-0.28-0.15-0.4-0.41-0.37-0.72c0.04-0.35,0.26-0.56,0.59-0.64c-0.09-0.17-0.18-0.35-0.28-0.53
			c-0.23,0.16-0.49,0.23-0.78,0.11c-0.19-0.08-0.33-0.22-0.41-0.41c-0.18-0.43,0.02-0.83,0.54-1.05c-0.08-0.18-0.16-0.35-0.25-0.54
			c-0.22,0.17-0.48,0.24-0.77,0.12c-0.2-0.08-0.34-0.23-0.41-0.43c-0.16-0.45,0.1-0.85,0.66-1c-0.23-0.22-0.33-0.48-0.28-0.75
			c-0.13,0.08-0.27,0.21-0.44,0.27c-0.18,0.07-0.36,0.02-0.53-0.09c-0.26-0.18-0.35-0.51-0.22-0.8c0.13-0.28,0.44-0.43,0.74-0.36
			c0.33,0.08,0.51,0.35,0.5,0.75c0.14-0.24,0.34-0.38,0.63-0.44c-0.18-0.19-0.25-0.41-0.25-0.66c-0.39,0.31-0.67,0.35-0.95,0.15
			c-0.25-0.18-0.34-0.5-0.24-0.78c0.11-0.29,0.39-0.46,0.7-0.43c0.32,0.03,0.52,0.25,0.6,0.66c0.18-0.12,0.36-0.24,0.54-0.35
			c-0.06-0.18-0.14-0.39-0.2-0.57c-0.13,0.06-0.29,0.15-0.46,0.2c-0.18,0.05-0.35-0.02-0.5-0.14c-0.23-0.19-0.31-0.5-0.19-0.78
			c0.12-0.27,0.4-0.44,0.69-0.4c0.34,0.05,0.54,0.27,0.6,0.71c0.16-0.22,0.36-0.35,0.62-0.38c-0.47-0.56-0.13-1.34,0.62-1.35
			c-0.3-0.27-0.4-0.58-0.21-0.94c0.13-0.26,0.42-0.4,0.71-0.35c0.36,0.06,0.55,0.29,0.62,0.68c0.17-0.21,0.38-0.31,0.65-0.33
			c-0.27-0.31-0.32-0.63-0.1-0.97c0.16-0.24,0.46-0.35,0.74-0.29c0.32,0.07,0.51,0.28,0.58,0.66c0.11-0.07,0.21-0.16,0.32-0.21
			c0.11-0.05,0.24-0.07,0.36-0.1c-0.28-0.39-0.32-0.67-0.1-0.96c0.18-0.24,0.49-0.33,0.77-0.24c0.29,0.1,0.47,0.36,0.47,0.67
			c-0.01,0.35-0.2,0.55-0.68,0.69c0.06,0.07,0.13,0.14,0.19,0.22c0.05,0.07,0.09,0.16,0.13,0.24c0.16-0.07,0.31-0.14,0.48-0.21
			c-0.21-0.3-0.24-0.63,0-0.94c0.18-0.24,0.44-0.33,0.74-0.27c0.37,0.08,0.56,0.34,0.6,0.72c0.5-0.52,1.3-0.28,1.4,0.46
			c0.57-0.55,1.36-0.17,1.38,0.55c0.28-0.3,0.6-0.4,0.97-0.19c0.26,0.15,0.38,0.39,0.35,0.68c-0.04,0.36-0.26,0.57-0.6,0.66
			c0.09,0.17,0.18,0.33,0.26,0.47c0.19-0.06,0.39-0.12,0.56-0.17c-0.06-0.13-0.17-0.28-0.22-0.45c-0.06-0.19,0.01-0.36,0.13-0.52
			c0.18-0.23,0.5-0.31,0.78-0.2c0.28,0.12,0.44,0.4,0.41,0.7c-0.04,0.33-0.27,0.52-0.73,0.6c0.26,0.18,0.39,0.42,0.39,0.75
			c0.3-0.31,0.63-0.39,0.99-0.16c0.23,0.15,0.34,0.45,0.28,0.72c-0.07,0.31-0.28,0.48-0.69,0.56c0.3,0.35,0.3,0.35,0.34,0.71
			c0.15-0.08,0.3-0.18,0.47-0.23c0.18-0.06,0.37,0,0.52,0.12c0.25,0.19,0.34,0.52,0.21,0.81c-0.12,0.28-0.43,0.45-0.72,0.4
			c-0.35-0.06-0.55-0.31-0.58-0.7c-0.16,0.12-0.33,0.24-0.49,0.35c0.06,0.14,0.14,0.31,0.21,0.48c0.33-0.22,0.68-0.25,1,0.05
			c0.22,0.2,0.28,0.47,0.18,0.75c-0.11,0.33-0.35,0.49-0.71,0.51c0.26,0.24,0.38,0.52,0.28,0.85c-0.1,0.34-0.35,0.51-0.69,0.56
			c0.48,0.52,0.23,1.29-0.51,1.38c0.27,0.27,0.36,0.58,0.18,0.93c-0.16,0.32-0.44,0.43-0.79,0.41c0.36,0.36,0.44,0.63,0.27,0.95
			c-0.14,0.26-0.43,0.41-0.72,0.37c-0.33-0.05-0.54-0.28-0.61-0.66c-0.1,0.07-0.18,0.16-0.28,0.21c-0.1,0.06-0.23,0.08-0.35,0.13
			c0.2,0.23,0.28,0.49,0.17,0.79c-0.07,0.2-0.21,0.34-0.4,0.42c-0.44,0.18-0.83-0.04-1.02-0.55c-0.2,0.09-0.39,0.19-0.59,0.28
			c0.23,0.29,0.28,0.61,0.03,0.94c-0.17,0.23-0.48,0.33-0.76,0.24c-0.33-0.11-0.49-0.34-0.52-0.71c-0.25,0.27-0.53,0.41-0.88,0.29
			C206.99,199.84,206.97,199.84,206.95,199.84z M212.02,196.58c-0.12,0.06-0.26,0.14-0.39,0.21c0.05,0.16,0.11,0.33,0.17,0.51
			c0.16-0.18,0.37-0.25,0.58-0.24C212.27,196.9,212.15,196.74,212.02,196.58z M212.65,189.33c0.06,0.13,0.13,0.27,0.19,0.39
			c0.18-0.05,0.35-0.1,0.52-0.15c-0.18-0.14-0.27-0.34-0.28-0.56C212.94,189.12,212.8,189.22,212.65,189.33z M202.97,187.55
			c-0.05-0.16-0.1-0.32-0.14-0.44c-0.18,0.08-0.37,0.15-0.54,0.22c0.09,0.12,0.2,0.27,0.3,0.41
			C202.72,187.68,202.85,187.61,202.97,187.55z M210.94,187.2c-0.06-0.17-0.13-0.35-0.19-0.51c-0.13,0.09-0.27,0.19-0.41,0.29
			c0.06,0.12,0.13,0.24,0.2,0.36C210.68,187.29,210.82,187.24,210.94,187.2z M207.9,198.62c0.05,0.16,0.1,0.33,0.14,0.46
			c0.16-0.09,0.32-0.18,0.48-0.27c-0.08-0.11-0.16-0.24-0.25-0.36C208.14,198.52,208.02,198.57,207.9,198.62z M213.27,192.98
			c0.16-0.05,0.32-0.1,0.46-0.15c-0.08-0.14-0.18-0.29-0.26-0.44c-0.11,0.07-0.23,0.14-0.35,0.22
			C213.17,192.74,213.22,192.86,213.27,192.98z M204.83,186.63c-0.04-0.14-0.09-0.29-0.13-0.42c-0.16,0.08-0.32,0.16-0.47,0.24
			c0.07,0.11,0.16,0.23,0.24,0.36C204.59,186.74,204.71,186.68,204.83,186.63z M207.96,185.77c-0.14,0.08-0.28,0.17-0.42,0.25
			c0.07,0.11,0.14,0.23,0.21,0.34c0.13-0.05,0.25-0.1,0.36-0.15C208.06,186.05,208.01,185.91,207.96,185.77z M202.67,196.56
			c-0.14,0.05-0.27,0.09-0.38,0.13c0.06,0.15,0.13,0.31,0.19,0.46c0.12-0.08,0.25-0.17,0.37-0.25
			C202.79,196.78,202.73,196.66,202.67,196.56z M200.67,193.35c0.11-0.07,0.23-0.15,0.34-0.22c-0.05-0.12-0.11-0.23-0.15-0.34
			c-0.15,0.05-0.29,0.1-0.42,0.14C200.51,193.06,200.59,193.21,200.67,193.35z M209.94,198.11c0.15-0.07,0.3-0.14,0.44-0.2
			c-0.07-0.11-0.16-0.23-0.24-0.35c-0.11,0.06-0.22,0.11-0.33,0.17C209.86,197.86,209.9,197.99,209.94,198.11z M212.75,195.6
			c-0.08-0.12-0.17-0.25-0.25-0.37c-0.11,0.06-0.21,0.13-0.32,0.19c0.04,0.12,0.09,0.24,0.13,0.34
			C212.46,195.71,212.61,195.65,212.75,195.6z M209.49,186.69c-0.05-0.15-0.1-0.3-0.15-0.43c-0.12,0.08-0.25,0.16-0.38,0.25
			c0.06,0.1,0.13,0.21,0.19,0.32C209.27,186.77,209.39,186.73,209.49,186.69z M212.67,194.02c0.05,0.12,0.09,0.23,0.13,0.33
			c0.14-0.05,0.27-0.1,0.4-0.14c-0.07-0.12-0.15-0.24-0.22-0.37C212.88,193.9,212.78,193.96,212.67,194.02z M202.4,188.92
			c-0.04-0.11-0.08-0.21-0.12-0.31c-0.12,0.05-0.24,0.1-0.36,0.15c0.07,0.11,0.14,0.21,0.21,0.32
			C202.22,189.03,202.31,188.98,202.4,188.92z M201.41,194.82c0.06,0.12,0.12,0.24,0.18,0.36c0.09-0.06,0.19-0.12,0.29-0.19
			c-0.05-0.1-0.09-0.19-0.14-0.29C201.63,194.75,201.52,194.79,201.41,194.82z M206.57,198.17c0.04,0.12,0.08,0.22,0.12,0.33
			c0.11-0.06,0.21-0.12,0.32-0.18c-0.06-0.09-0.11-0.18-0.17-0.27C206.75,198.09,206.67,198.13,206.57,198.17z M201.42,191.71
			c-0.04-0.1-0.08-0.19-0.11-0.27c-0.12,0.04-0.22,0.08-0.33,0.12c0.06,0.1,0.12,0.21,0.19,0.31
			C201.25,191.81,201.33,191.76,201.42,191.71z M203.9,197.54c0.1-0.06,0.19-0.12,0.28-0.18c-0.05-0.08-0.09-0.16-0.14-0.25
			c-0.1,0.04-0.19,0.07-0.27,0.1C203.82,197.32,203.86,197.43,203.9,197.54z M201.47,190.17c0.06,0.1,0.12,0.19,0.18,0.28
			c0.09-0.05,0.17-0.1,0.25-0.15c-0.04-0.09-0.07-0.17-0.11-0.25C201.68,190.09,201.58,190.13,201.47,190.17z M211.38,188.87
			c0.04,0.08,0.08,0.16,0.12,0.23c0.09-0.03,0.17-0.06,0.25-0.09c-0.05-0.11-0.09-0.2-0.14-0.3
			C211.54,188.77,211.47,188.81,211.38,188.87z M212.69,190.9c-0.05-0.1-0.1-0.19-0.15-0.29c-0.08,0.05-0.15,0.1-0.23,0.15
			c0.04,0.08,0.08,0.16,0.12,0.24C212.52,190.96,212.6,190.94,212.69,190.9z M205.44,197.61c-0.08,0.04-0.16,0.07-0.24,0.1
			c0.04,0.1,0.07,0.19,0.1,0.28c0.09-0.06,0.18-0.11,0.26-0.16C205.53,197.76,205.49,197.69,205.44,197.61z M205.77,186.95
			c0.05,0.07,0.09,0.13,0.13,0.19c0.08-0.04,0.14-0.07,0.21-0.1c-0.03-0.08-0.06-0.15-0.09-0.23
			C205.93,186.87,205.86,186.91,205.77,186.95z M210.61,196.29c-0.07,0.04-0.13,0.07-0.2,0.11c0.03,0.07,0.05,0.13,0.08,0.2
			c0.09-0.04,0.16-0.07,0.24-0.11C210.69,196.41,210.65,196.36,210.61,196.29z M204.02,188.05c0.06-0.03,0.12-0.06,0.19-0.1
			c-0.03-0.07-0.05-0.13-0.07-0.2c-0.08,0.04-0.15,0.08-0.23,0.11C203.94,187.94,203.98,187.99,204.02,188.05z M208.72,197.23
			c-0.06,0.03-0.11,0.06-0.17,0.08c0.02,0.06,0.04,0.11,0.06,0.17c0.08-0.04,0.14-0.07,0.21-0.11
			C208.78,197.32,208.75,197.28,208.72,197.23z M202.16,193.43c-0.05,0.02-0.09,0.04-0.14,0.06c0.03,0.06,0.06,0.11,0.09,0.16
			c0.04-0.03,0.08-0.06,0.11-0.08C202.2,193.52,202.18,193.48,202.16,193.43z M203.03,195.54c0.05-0.04,0.08-0.06,0.1-0.09
			c-0.04-0.11-0.08-0.17-0.18-0.08C202.98,195.43,203,195.48,203.03,195.54z M211.95,192.29c0.02,0.01,0.03,0.01,0.05,0.02
			c0.04-0.02,0.07-0.03,0.12-0.05c-0.03-0.05-0.06-0.1-0.09-0.14c-0.02,0-0.03,0-0.05,0C211.97,192.18,211.96,192.24,211.95,192.29z
			"/>
		<path d="M200.1,194.87c0,0.37-0.29,0.65-0.66,0.65c-0.36,0-0.66-0.3-0.65-0.66c0-0.36,0.3-0.66,0.66-0.65
			C199.81,194.21,200.1,194.5,200.1,194.87z"/>
		<path d="M200.34,196.06c0.37,0,0.66,0.28,0.66,0.65c0,0.36-0.29,0.66-0.65,0.66c-0.36,0-0.66-0.29-0.66-0.65
			C199.68,196.36,199.97,196.06,200.34,196.06z"/>
		<path d="M206.95,199.84c0.02,0,0.04-0.01,0.06-0.01c0.04,0.03,0.07,0.06,0.11,0.09c0.27,0.18,0.37,0.53,0.24,0.82
			c-0.14,0.29-0.47,0.44-0.78,0.34c-0.31-0.1-0.5-0.4-0.45-0.73c0.05-0.32,0.33-0.55,0.66-0.54
			C206.84,199.82,206.89,199.84,206.95,199.84z"/>
		<path d="M201.08,187.49c0,0.35-0.28,0.64-0.63,0.65c-0.35,0-0.64-0.28-0.65-0.63c0-0.35,0.28-0.64,0.63-0.64
			C200.79,186.86,201.08,187.14,201.08,187.49z"/>
		<path d="M211.84,198.51c0.35,0,0.63,0.27,0.63,0.62c0,0.35-0.27,0.63-0.62,0.64c-0.35,0-0.63-0.27-0.63-0.62
			C211.22,198.79,211.49,198.51,211.84,198.51z"/>
		<path d="M215.27,195.48c0,0.35-0.28,0.62-0.63,0.62c-0.35,0-0.62-0.28-0.62-0.63c0-0.35,0.29-0.62,0.63-0.62
			C215,194.85,215.28,195.13,215.27,195.48z"/>
		<path d="M209.99,199.41c0.35,0,0.63,0.28,0.63,0.63c0,0.35-0.28,0.63-0.63,0.63c-0.35,0-0.63-0.28-0.63-0.63
			C209.36,199.69,209.64,199.41,209.99,199.41z"/>
		<path d="M215.75,194.1c0,0.35-0.28,0.63-0.63,0.63c-0.35,0-0.63-0.29-0.63-0.63c0-0.35,0.28-0.63,0.63-0.62
			C215.48,193.47,215.75,193.75,215.75,194.1z"/>
		<path d="M209.22,183.74c0.34,0,0.62,0.27,0.63,0.61c0,0.34-0.27,0.62-0.62,0.63c-0.34,0-0.62-0.28-0.63-0.62
			C208.6,184.03,208.88,183.74,209.22,183.74z"/>
		<path d="M211.22,184.84c0,0.34-0.28,0.62-0.62,0.62c-0.34,0-0.61-0.27-0.61-0.61c0-0.34,0.27-0.63,0.61-0.63
			C210.95,184.21,211.22,184.49,211.22,184.84z"/>
		<path d="M202.76,184.61c0.35,0,0.62,0.27,0.62,0.62c0,0.35-0.27,0.62-0.62,0.62c-0.34,0-0.61-0.27-0.61-0.61
			C202.14,184.88,202.42,184.61,202.76,184.61z"/>
		<path d="M214.78,196.86c0,0.34-0.28,0.61-0.61,0.61c-0.33,0-0.6-0.28-0.6-0.61c0-0.34,0.27-0.61,0.61-0.61
			C214.51,196.24,214.78,196.52,214.78,196.86z"/>
		<path d="M200.64,198.57c0-0.34,0.28-0.61,0.61-0.61c0.34,0,0.61,0.28,0.61,0.62c-0.01,0.33-0.28,0.6-0.61,0.6
			C200.91,199.18,200.64,198.91,200.64,198.57z"/>
		<path d="M204.61,184.93c-0.34-0.01-0.6-0.28-0.6-0.62c0.01-0.34,0.29-0.6,0.62-0.6c0.33,0.01,0.59,0.28,0.59,0.62
			C205.22,184.67,204.95,184.93,204.61,184.93z"/>
		<path d="M207.25,183.86c0.01-0.33,0.28-0.59,0.61-0.58c0.33,0.01,0.6,0.28,0.59,0.61c-0.01,0.33-0.29,0.6-0.62,0.59
			C207.49,184.47,207.24,184.2,207.25,183.86z"/>
		<path d="M198.55,192.42c0.33,0,0.6,0.27,0.59,0.61c-0.01,0.33-0.27,0.59-0.6,0.59c-0.33,0-0.6-0.28-0.6-0.6
			C197.94,192.68,198.21,192.42,198.55,192.42z"/>
		<path d="M215.6,192.13c0.33,0,0.6,0.28,0.6,0.61c-0.01,0.33-0.27,0.59-0.6,0.59c-0.33,0-0.6-0.27-0.6-0.6
			C215,192.39,215.27,192.13,215.6,192.13z"/>
		<path d="M215.17,188.9c0.33,0,0.59,0.27,0.59,0.6c0,0.32-0.27,0.58-0.59,0.59c-0.32,0-0.59-0.27-0.6-0.59
			C214.58,189.17,214.85,188.9,215.17,188.9z"/>
		<path d="M214.27,188.22c-0.33,0-0.59-0.27-0.59-0.59c0-0.32,0.27-0.59,0.6-0.59c0.32,0,0.58,0.27,0.59,0.59
			C214.86,187.95,214.6,188.22,214.27,188.22z"/>
		<path d="M208.72,200.94c0,0.33-0.27,0.59-0.59,0.59c-0.32,0-0.58-0.26-0.59-0.58c0-0.33,0.26-0.6,0.58-0.6
			C208.46,200.35,208.72,200.61,208.72,200.94z"/>
		<path d="M211.98,185.9c-0.33,0-0.59-0.26-0.59-0.59c0-0.32,0.26-0.58,0.58-0.58c0.33,0,0.59,0.25,0.59,0.58
			C212.57,185.64,212.32,185.9,211.98,185.9z"/>
		<path d="M200.91,186.71c-0.32,0-0.58-0.26-0.57-0.59c0-0.32,0.27-0.58,0.59-0.57c0.32,0.01,0.57,0.26,0.57,0.58
			C201.5,186.45,201.24,186.71,200.91,186.71z"/>
		<path d="M213.69,197.66c0.32,0,0.57,0.25,0.57,0.57c0,0.31-0.25,0.56-0.57,0.56c-0.32,0-0.58-0.26-0.57-0.58
			C213.13,197.92,213.38,197.67,213.69,197.66z"/>
		<path d="M198.98,195.68c0.31,0,0.56,0.26,0.55,0.57c-0.01,0.31-0.26,0.55-0.57,0.54c-0.31,0-0.55-0.25-0.55-0.56
			C198.42,195.92,198.67,195.68,198.98,195.68z"/>
		<path d="M206.47,183.97c-0.32,0-0.56-0.25-0.56-0.57c0-0.31,0.25-0.55,0.56-0.55c0.32,0,0.56,0.25,0.56,0.57
			C207.03,183.74,206.78,183.98,206.47,183.97z"/>
		<path d="M213.37,185.25c0.3,0,0.54,0.25,0.53,0.55c-0.01,0.29-0.25,0.53-0.55,0.53c-0.3,0-0.53-0.24-0.53-0.54
			C212.82,185.48,213.06,185.25,213.37,185.25z"/>
		<path d="M215.54,191.35c0-0.3,0.24-0.55,0.55-0.54c0.29,0,0.53,0.24,0.53,0.54c0,0.3-0.24,0.54-0.53,0.54
			C215.78,191.89,215.54,191.65,215.54,191.35z"/>
		<path d="M200.42,198.1c0,0.3-0.24,0.54-0.55,0.54c-0.3,0-0.53-0.25-0.53-0.54c0-0.3,0.25-0.54,0.55-0.54
			C200.18,197.56,200.42,197.8,200.42,198.1z"/>
		<path d="M204.91,201.9c-0.3,0-0.54-0.24-0.53-0.53c0-0.29,0.24-0.52,0.53-0.52c0.3,0,0.54,0.24,0.53,0.53
			C205.44,201.67,205.21,201.9,204.91,201.9z"/>
		<path d="M198.6,194.38c0,0.3-0.24,0.54-0.54,0.53c-0.29,0-0.52-0.24-0.52-0.53c0-0.3,0.24-0.54,0.54-0.53
			C198.37,193.86,198.6,194.09,198.6,194.38z"/>
		<path d="M211.9,200.53c0,0.29-0.24,0.52-0.53,0.52c-0.3,0-0.53-0.24-0.53-0.54c0.01-0.29,0.24-0.52,0.53-0.52
			C211.67,199.98,211.91,200.23,211.9,200.53z"/>
		<path d="M204.06,200.89c0,0.29-0.23,0.53-0.52,0.54c-0.3,0.01-0.54-0.23-0.54-0.53c0-0.3,0.24-0.54,0.53-0.54
			C203.82,200.36,204.06,200.6,204.06,200.89z"/>
		<path d="M203.25,183.32c0.29,0,0.52,0.24,0.52,0.53c-0.01,0.28-0.24,0.51-0.53,0.51c-0.28,0-0.52-0.24-0.52-0.52
			C202.72,183.56,202.95,183.32,203.25,183.32z"/>
		<path d="M198.63,189.78c0,0.29-0.23,0.53-0.52,0.52c-0.29,0-0.52-0.23-0.52-0.52c0-0.29,0.24-0.53,0.53-0.53
			C198.4,189.26,198.63,189.49,198.63,189.78z"/>
		<path d="M198.59,188.92c-0.29,0-0.52-0.23-0.52-0.52c0-0.29,0.23-0.52,0.51-0.53c0.29,0,0.53,0.23,0.53,0.53
			C199.1,188.69,198.87,188.92,198.59,188.92z"/>
		<path d="M209.52,201.93c-0.28,0-0.51-0.22-0.51-0.5c0-0.29,0.23-0.52,0.52-0.52c0.28,0,0.51,0.23,0.51,0.51
			C210.03,201.7,209.8,201.93,209.52,201.93z"/>
		<path d="M197.63,190.65c0.28,0,0.51,0.23,0.51,0.51c0,0.28-0.22,0.51-0.5,0.51c-0.29,0-0.52-0.23-0.52-0.51
			C197.12,190.88,197.36,190.65,197.63,190.65z"/>
		<path d="M202.15,200.93c-0.28,0-0.51-0.23-0.51-0.51c0-0.29,0.24-0.51,0.53-0.51c0.28,0.01,0.5,0.23,0.5,0.52
			C202.66,200.71,202.43,200.93,202.15,200.93z"/>
		<path d="M201.39,185.25c-0.27,0-0.5-0.22-0.51-0.5c0-0.27,0.22-0.5,0.49-0.51c0.28-0.01,0.51,0.23,0.51,0.51
			C201.89,185.02,201.66,185.25,201.39,185.25z"/>
		<path d="M213.23,200.12c-0.28,0-0.5-0.22-0.5-0.5c0-0.28,0.22-0.51,0.5-0.51c0.28,0,0.5,0.23,0.5,0.5
			C213.73,199.89,213.51,200.11,213.23,200.12z"/>
		<path d="M206.79,201.85c0,0.28-0.22,0.5-0.5,0.5c-0.28,0-0.51-0.23-0.5-0.51c0-0.28,0.23-0.5,0.51-0.49
			C206.57,201.35,206.79,201.57,206.79,201.85z"/>
		<path d="M204.6,182.94c0-0.27,0.21-0.49,0.49-0.49c0.28,0,0.5,0.22,0.5,0.5c0,0.27-0.23,0.49-0.5,0.49
			C204.83,183.43,204.61,183.21,204.6,182.94z"/>
		<path d="M199.06,186.53c0.27,0,0.49,0.21,0.5,0.48c0.01,0.27-0.22,0.5-0.5,0.5c-0.27,0-0.49-0.22-0.49-0.49
			C198.57,186.75,198.78,186.53,199.06,186.53z"/>
		<path d="M216.13,188.12c0,0.27-0.22,0.49-0.49,0.49c-0.27,0-0.49-0.22-0.49-0.49c0-0.28,0.23-0.5,0.5-0.49
			C215.92,187.62,216.13,187.84,216.13,188.12z"/>
		<path d="M216.51,195.95c0,0.27-0.21,0.48-0.48,0.48c-0.26,0-0.48-0.21-0.49-0.48c0-0.27,0.22-0.49,0.49-0.49
			C216.29,195.47,216.51,195.68,216.51,195.95z"/>
		<path d="M210.18,182.98c0,0.27-0.21,0.48-0.48,0.49c-0.26,0-0.48-0.21-0.49-0.48c-0.01-0.27,0.22-0.5,0.49-0.49
			C209.97,182.5,210.18,182.71,210.18,182.98z"/>
		<path d="M216.51,195.05c-0.27,0-0.48-0.2-0.49-0.47c0-0.27,0.21-0.49,0.48-0.49c0.26,0,0.48,0.22,0.48,0.48
			C216.99,194.83,216.77,195.05,216.51,195.05z"/>
		<path d="M215.55,197.8c-0.26,0-0.47-0.21-0.48-0.47c-0.01-0.26,0.2-0.47,0.46-0.48c0.26-0.01,0.49,0.21,0.49,0.47
			C216.02,197.59,215.81,197.8,215.55,197.8z"/>
		<path d="M216.55,189.49c0.26,0,0.47,0.22,0.47,0.48c0,0.26-0.22,0.48-0.49,0.47c-0.26-0.01-0.47-0.22-0.46-0.48
			S216.29,189.49,216.55,189.49z"/>
		<path d="M211.55,183.46c0,0.26-0.21,0.47-0.47,0.47c-0.26,0-0.47-0.21-0.47-0.48c0-0.26,0.21-0.47,0.47-0.47
			C211.34,182.98,211.55,183.19,211.55,183.46z"/>
		<path d="M215.21,186.26c0,0.26-0.21,0.47-0.47,0.47c-0.26,0-0.47-0.21-0.48-0.47c0-0.26,0.22-0.49,0.48-0.48
			C215,185.79,215.21,186.01,215.21,186.26z"/>
		<path d="M200.79,200.41c-0.27,0-0.47-0.2-0.47-0.47c0-0.27,0.2-0.47,0.47-0.47c0.26,0,0.47,0.2,0.47,0.47
			C201.26,200.2,201.05,200.41,200.79,200.41z"/>
		<path d="M196.71,192.54c0-0.26,0.21-0.46,0.46-0.46c0.25,0,0.46,0.21,0.46,0.47c0,0.25-0.21,0.46-0.47,0.46
			C196.91,193,196.71,192.8,196.71,192.54z"/>
		<path d="M208.78,182.52c0,0.26-0.21,0.46-0.47,0.46c-0.26,0-0.46-0.21-0.45-0.47c0-0.26,0.21-0.46,0.47-0.46
			C208.58,182.05,208.79,182.26,208.78,182.52z"/>
		<path d="M207.68,202.77c-0.26,0-0.45-0.19-0.46-0.45c0-0.25,0.2-0.46,0.45-0.46c0.25,0,0.46,0.2,0.46,0.45
			C208.13,202.57,207.93,202.77,207.68,202.77z"/>
		<path d="M216.98,192.74c0.25,0,0.45,0.2,0.45,0.45c0,0.25-0.2,0.45-0.45,0.45c-0.25,0-0.45-0.2-0.45-0.45
			C216.53,192.94,216.72,192.74,216.98,192.74z"/>
		<path d="M212.91,183.93c0,0.25-0.2,0.45-0.45,0.45c-0.25,0-0.45-0.2-0.45-0.45c0-0.25,0.2-0.45,0.45-0.45
			C212.71,183.48,212.91,183.68,212.91,183.93z"/>
		<path d="M198.95,197.62c0,0.25-0.2,0.46-0.45,0.46c-0.25,0-0.46-0.2-0.46-0.45c0-0.25,0.19-0.45,0.45-0.46
			C198.75,197.17,198.95,197.36,198.95,197.62z"/>
		<path d="M198.05,195.77c0,0.25-0.2,0.45-0.45,0.45c-0.25,0-0.45-0.2-0.45-0.45c0-0.25,0.2-0.45,0.45-0.45
			C197.85,195.31,198.05,195.51,198.05,195.77z"/>
		<path d="M199.55,185.21c0.24,0,0.44,0.21,0.43,0.45c0,0.25-0.2,0.44-0.45,0.44c-0.24,0-0.44-0.21-0.43-0.45
			C199.1,185.4,199.3,185.2,199.55,185.21z"/>
		<path d="M215.08,198.28c0.24,0,0.43,0.19,0.43,0.44c0,0.24-0.2,0.43-0.44,0.43c-0.24,0-0.43-0.2-0.43-0.44
			C214.64,198.47,214.84,198.28,215.08,198.28z"/>
		<path d="M210.89,202.31c-0.24,0-0.42-0.2-0.42-0.43c0.01-0.23,0.2-0.42,0.43-0.42c0.24,0,0.42,0.2,0.42,0.43
			C211.32,202.13,211.13,202.31,210.89,202.31z"/>
		<path d="M212.75,201.4c-0.24,0-0.42-0.19-0.42-0.43c0-0.23,0.19-0.41,0.42-0.42c0.24,0,0.43,0.19,0.43,0.43
			C213.17,201.22,212.99,201.41,212.75,201.4z"/>
		<path d="M206.93,182.46c-0.24,0-0.42-0.19-0.41-0.43c0.01-0.23,0.19-0.41,0.42-0.41c0.23,0,0.43,0.2,0.43,0.43
			C207.36,182.28,207.17,182.46,206.93,182.46z"/>
		<path d="M217.86,191.82c0,0.23-0.2,0.42-0.42,0.41c-0.23,0-0.42-0.2-0.41-0.43c0.01-0.22,0.19-0.4,0.42-0.4
			C217.67,191.41,217.86,191.6,217.86,191.82z"/>
		<path d="M201.86,182.95c0.23,0,0.42,0.18,0.42,0.41c0,0.23-0.19,0.42-0.41,0.42c-0.22,0-0.41-0.18-0.41-0.41
			C201.44,183.14,201.62,182.96,201.86,182.95z"/>
		<path d="M199.41,199.06c0.23,0,0.42,0.19,0.41,0.42c-0.01,0.23-0.19,0.4-0.42,0.4c-0.23,0-0.42-0.19-0.42-0.42
			C198.99,199.24,199.18,199.06,199.41,199.06z"/>
		<path d="M213.84,184c0.22,0,0.41,0.19,0.41,0.41c0,0.22-0.18,0.4-0.4,0.4c-0.23,0-0.41-0.17-0.41-0.4
			C213.43,184.18,213.61,184,213.84,184z"/>
		<path d="M196.69,193.51c0.22,0,0.41,0.18,0.41,0.41c0,0.22-0.17,0.4-0.39,0.4c-0.23,0.01-0.41-0.17-0.41-0.4
			C196.29,193.7,196.46,193.51,196.69,193.51z"/>
		<path d="M204.12,182.46c0,0.23-0.17,0.41-0.4,0.41c-0.22,0-0.4-0.17-0.4-0.39c-0.01-0.23,0.17-0.41,0.39-0.42
			C203.93,182.05,204.12,182.23,204.12,182.46z"/>
		<path d="M209.44,202.79c0,0.22-0.18,0.39-0.4,0.39c-0.22,0-0.39-0.18-0.38-0.41c0.01-0.21,0.18-0.38,0.39-0.38
			C209.26,202.4,209.44,202.58,209.44,202.79z"/>
		<path d="M204.82,202.75c0,0.21-0.17,0.39-0.39,0.39c-0.21,0-0.38-0.17-0.38-0.38c0-0.22,0.17-0.39,0.38-0.39
			C204.65,202.36,204.82,202.54,204.82,202.75z"/>
		<path d="M199.63,184.26c0-0.21,0.18-0.38,0.4-0.38c0.21,0.01,0.38,0.18,0.38,0.38c0,0.21-0.18,0.39-0.39,0.39
			C199.8,184.66,199.62,184.48,199.63,184.26z"/>
		<path d="M217.01,188.2c0.21,0,0.39,0.17,0.39,0.38c0,0.21-0.17,0.39-0.38,0.39c-0.21,0-0.38-0.17-0.38-0.38
			C216.63,188.38,216.8,188.2,217.01,188.2z"/>
		<path d="M216.5,186.73c0,0.21-0.18,0.39-0.39,0.38c-0.21,0-0.38-0.17-0.38-0.38c0-0.21,0.17-0.39,0.38-0.39
			C216.33,186.34,216.5,186.52,216.5,186.73z"/>
		<path d="M203.44,202.28c0,0.22-0.18,0.38-0.39,0.38c-0.21,0-0.37-0.17-0.37-0.38c0-0.22,0.17-0.39,0.39-0.38
			C203.27,201.89,203.44,202.07,203.44,202.28z"/>
		<path d="M197.11,189.3c0,0.21-0.17,0.38-0.38,0.38c-0.21,0-0.37-0.17-0.37-0.38c0-0.2,0.17-0.37,0.37-0.37
			C196.93,188.93,197.11,189.1,197.11,189.3z"/>
		<path d="M214.22,200.08c0-0.21,0.16-0.37,0.37-0.37c0.21,0,0.38,0.17,0.38,0.38c0,0.21-0.18,0.38-0.39,0.37
			C214.39,200.45,214.22,200.28,214.22,200.08z"/>
		<path d="M197.58,187.93c0,0.21-0.18,0.38-0.38,0.37c-0.2,0-0.37-0.17-0.37-0.37c0-0.21,0.17-0.38,0.38-0.38
			C197.42,187.55,197.58,187.72,197.58,187.93z"/>
		<path d="M196.63,190.68c0,0.2-0.16,0.36-0.35,0.37c-0.2,0-0.38-0.16-0.38-0.36c0-0.2,0.17-0.37,0.37-0.37
			C196.47,190.32,196.63,190.48,196.63,190.68z"/>
		<path d="M205.57,181.93c-0.2,0-0.36-0.16-0.37-0.36c0-0.21,0.16-0.37,0.36-0.37c0.21,0,0.37,0.17,0.37,0.37
			C205.94,181.76,205.77,181.93,205.57,181.93z"/>
		<path d="M205.82,202.86c0.2,0,0.36,0.16,0.37,0.36c0,0.21-0.16,0.37-0.36,0.37c-0.21,0-0.37-0.16-0.36-0.37
			C205.45,203.02,205.62,202.86,205.82,202.86z"/>
		<path d="M201.68,201.43c0.2,0,0.36,0.17,0.36,0.38c-0.01,0.2-0.17,0.35-0.37,0.35c-0.2,0-0.36-0.16-0.36-0.36
			C201.31,201.59,201.48,201.43,201.68,201.43z"/>
		<path d="M197.68,186.91c-0.19,0-0.35-0.16-0.36-0.35c0-0.19,0.16-0.36,0.36-0.36c0.2,0,0.36,0.17,0.36,0.37
			C198.04,186.75,197.88,186.91,197.68,186.91z"/>
		<path d="M197.47,197.15c0,0.2-0.16,0.35-0.35,0.35c-0.2,0-0.36-0.16-0.36-0.36c0-0.2,0.16-0.36,0.36-0.35
			C197.32,196.8,197.48,196.95,197.47,197.15z"/>
		<path d="M217.92,190.09c0.19,0,0.34,0.16,0.34,0.34c0,0.19-0.16,0.35-0.35,0.35c-0.19,0-0.34-0.15-0.34-0.34
			C217.57,190.25,217.73,190.09,217.92,190.09z"/>
		<path d="M215.21,185.23c-0.19,0-0.34-0.15-0.34-0.34c0-0.19,0.16-0.35,0.35-0.35c0.19,0,0.34,0.16,0.34,0.34
			C215.56,185.07,215.4,185.23,215.21,185.23z"/>
		<path d="M199.97,201.32c0-0.19,0.15-0.34,0.34-0.34c0.18,0,0.33,0.15,0.33,0.33c0,0.19-0.15,0.34-0.34,0.34
			C200.12,201.66,199.97,201.51,199.97,201.32z"/>
		<path d="M217.07,196.43c0-0.19,0.14-0.34,0.32-0.34c0.19-0.01,0.35,0.14,0.35,0.33c0,0.19-0.15,0.34-0.34,0.34
			C217.22,196.76,217.07,196.62,217.07,196.43z"/>
		<path d="M195.88,195.29c0-0.19,0.14-0.33,0.33-0.34c0.19,0,0.35,0.14,0.35,0.33c0,0.19-0.16,0.34-0.34,0.34
			C196.03,195.62,195.88,195.48,195.88,195.29z"/>
		<path d="M209.84,181.61c0-0.18,0.15-0.33,0.33-0.34c0.18,0,0.34,0.16,0.34,0.34c0,0.19-0.16,0.34-0.35,0.34
			C209.99,181.94,209.84,181.79,209.84,181.61z"/>
		<path d="M197.69,198.99c0.01-0.18,0.16-0.33,0.35-0.32c0.18,0.01,0.33,0.16,0.33,0.34c0,0.19-0.16,0.34-0.35,0.33
			C197.82,199.33,197.68,199.17,197.69,198.99z"/>
		<path d="M218.22,195.04c0,0.19-0.15,0.34-0.34,0.34c-0.18,0-0.33-0.15-0.33-0.33c0-0.19,0.15-0.34,0.34-0.34
			C218.07,194.71,218.22,194.86,218.22,195.04z"/>
		<path d="M195.46,192.06c0-0.18,0.15-0.32,0.33-0.32c0.18,0,0.33,0.15,0.33,0.33c0,0.18-0.15,0.33-0.34,0.33
			C195.6,192.39,195.46,192.24,195.46,192.06z"/>
		<path d="M211.55,182.4c-0.18,0-0.32-0.15-0.32-0.33c0-0.18,0.15-0.33,0.34-0.32c0.18,0.01,0.32,0.16,0.32,0.33
			C211.88,182.26,211.73,182.4,211.55,182.4z"/>
		<path d="M217.26,197.82c-0.01,0.18-0.16,0.32-0.34,0.31c-0.18-0.01-0.32-0.16-0.31-0.34c0.01-0.18,0.16-0.32,0.33-0.32
			C217.12,197.48,217.27,197.64,217.26,197.82z"/>
		<path d="M212.27,202.69c-0.18,0-0.32-0.15-0.32-0.33c0-0.19,0.15-0.33,0.34-0.32c0.18,0.01,0.32,0.15,0.31,0.33
			C212.6,202.55,212.45,202.69,212.27,202.69z"/>
		<path d="M202.65,181.99c0,0.17-0.14,0.31-0.32,0.31c-0.17,0-0.32-0.14-0.32-0.32c0-0.18,0.15-0.32,0.33-0.32
			C202.52,181.68,202.66,181.82,202.65,181.99z"/>
		<path d="M206.88,203.7c0-0.18,0.13-0.32,0.31-0.32c0.18,0,0.33,0.14,0.33,0.32c0,0.17-0.15,0.32-0.32,0.32
			C207.03,204.01,206.88,203.87,206.88,203.7z"/>
		<path d="M208.48,181.14c0-0.18,0.13-0.32,0.31-0.32c0.18-0.01,0.33,0.14,0.33,0.32c0,0.17-0.15,0.32-0.32,0.32
			C208.63,181.45,208.48,181.31,208.48,181.14z"/>
		<path d="M218.03,193.66c0-0.18,0.14-0.31,0.31-0.31c0.18,0,0.32,0.14,0.32,0.33c-0.01,0.17-0.15,0.31-0.32,0.31
			C218.17,193.98,218.03,193.84,218.03,193.66z"/>
		<path d="M210.11,203.26c0-0.17,0.14-0.32,0.31-0.32c0.18,0,0.32,0.15,0.32,0.33c0,0.17-0.15,0.31-0.32,0.31
			C210.24,203.58,210.1,203.44,210.11,203.26z"/>
		<path d="M213.24,182.55c0,0.17-0.13,0.31-0.3,0.31c-0.17,0.01-0.32-0.14-0.32-0.31c0-0.17,0.14-0.3,0.31-0.3
			C213.1,182.24,213.24,182.38,213.24,182.55z"/>
		<path d="M198.47,185.18c0,0.17-0.14,0.3-0.31,0.3c-0.17,0-0.3-0.14-0.31-0.31c0-0.17,0.14-0.31,0.32-0.31
			C198.34,184.88,198.47,185.01,198.47,185.18z"/>
		<path d="M214.13,201.16c0.16,0,0.3,0.13,0.3,0.29c0,0.17-0.13,0.3-0.3,0.3c-0.16,0-0.29-0.13-0.29-0.3
			C213.84,201.29,213.96,201.16,214.13,201.16z"/>
		<path d="M200.48,183.19c-0.16,0-0.3-0.13-0.3-0.29c0-0.16,0.13-0.3,0.29-0.3c0.17,0,0.31,0.13,0.31,0.3
			C200.78,183.06,200.65,183.19,200.48,183.19z"/>
		<path d="M204.48,181.09c0,0.16-0.13,0.28-0.29,0.28c-0.16,0-0.29-0.14-0.29-0.3c0.01-0.16,0.14-0.28,0.29-0.28
			C204.36,180.8,204.48,180.93,204.48,181.09z"/>
		<path d="M217.49,187.49c-0.15,0-0.29-0.13-0.29-0.29c0-0.16,0.14-0.3,0.3-0.29c0.16,0,0.28,0.14,0.28,0.29
			C217.78,187.37,217.65,187.49,217.49,187.49z"/>
		<path d="M216.46,199.47c-0.16,0-0.29-0.12-0.29-0.28c-0.01-0.16,0.12-0.3,0.29-0.3c0.16,0,0.28,0.13,0.28,0.29
			C216.74,199.34,216.62,199.47,216.46,199.47z"/>
		<path d="M207.42,180.38c0.15,0,0.28,0.13,0.27,0.28c0,0.15-0.13,0.28-0.28,0.27c-0.15,0-0.28-0.13-0.27-0.28
			C207.14,180.5,207.27,180.38,207.42,180.38z"/>
		<path d="M219.1,192.29c0,0.15-0.12,0.28-0.28,0.28c-0.15,0-0.28-0.13-0.28-0.28c0-0.15,0.13-0.28,0.28-0.28
			C218.98,192.01,219.1,192.13,219.1,192.29z"/>
		<path d="M198.65,200.83c0.01-0.15,0.14-0.28,0.29-0.27c0.15,0.01,0.27,0.14,0.27,0.29c-0.01,0.15-0.14,0.27-0.29,0.27
			C198.76,201.12,198.64,200.99,198.65,200.83z"/>
		<path d="M195.31,193.72c-0.15,0-0.27-0.13-0.27-0.29c0-0.15,0.13-0.28,0.28-0.27c0.15,0,0.28,0.14,0.27,0.29
			C195.59,193.6,195.46,193.73,195.31,193.72z"/>
		<path d="M216.6,185.63c-0.15,0-0.27-0.11-0.27-0.26c0-0.15,0.11-0.27,0.26-0.28c0.15,0,0.27,0.11,0.27,0.26
			C216.86,185.5,216.74,185.63,216.6,185.63z"/>
		<path d="M214.3,182.76c0.15,0,0.27,0.12,0.27,0.27c0,0.15-0.12,0.27-0.27,0.27c-0.15,0-0.27-0.12-0.27-0.27
			C214.04,182.88,214.16,182.76,214.3,182.76z"/>
		<path d="M218.66,189.06c0,0.15-0.12,0.27-0.27,0.27c-0.15,0-0.27-0.12-0.27-0.27c0-0.15,0.12-0.27,0.27-0.27
			C218.54,188.79,218.66,188.91,218.66,189.06z"/>
		<path d="M208.84,204.17c0,0.15-0.11,0.27-0.26,0.27c-0.15,0-0.27-0.11-0.27-0.26c0-0.15,0.11-0.27,0.26-0.27
			C208.72,203.9,208.84,204.02,208.84,204.17z"/>
		<path d="M196.65,198.77c-0.13,0-0.25-0.11-0.26-0.24c0-0.14,0.11-0.25,0.24-0.25c0.14,0,0.25,0.1,0.25,0.24
			C196.89,198.66,196.79,198.77,196.65,198.77z"/>
		<path d="M195.73,196.42c0.14,0,0.25,0.1,0.25,0.24c0,0.14-0.1,0.25-0.24,0.25c-0.14,0-0.25-0.1-0.26-0.24
			C195.49,196.54,195.6,196.42,195.73,196.42z"/>
		<path d="M198.63,183.55c0.13,0,0.25,0.11,0.25,0.24c0,0.13-0.11,0.25-0.24,0.26c-0.13,0-0.25-0.11-0.25-0.25
			C198.39,183.66,198.49,183.55,198.63,183.55z"/>
		<path d="M202.57,203.89c-0.13,0-0.24-0.12-0.23-0.25c0-0.13,0.12-0.24,0.25-0.23c0.13,0,0.24,0.12,0.23,0.25
			C202.82,203.79,202.7,203.9,202.57,203.89z"/>
		<path d="M203.96,204.37c-0.13,0-0.24-0.1-0.24-0.24c0-0.13,0.1-0.24,0.23-0.24c0.13,0,0.24,0.11,0.24,0.24
			C204.2,204.26,204.09,204.37,203.96,204.37z"/>
		<path d="M215.98,200.79c-0.14,0-0.24-0.1-0.24-0.24c0-0.13,0.1-0.24,0.24-0.24c0.13,0,0.23,0.1,0.24,0.23
			C216.22,200.68,216.12,200.79,215.98,200.79z"/>
		<path d="M206.02,180.41c-0.13-0.01-0.23-0.12-0.22-0.25c0.01-0.12,0.12-0.22,0.24-0.21c0.13,0,0.23,0.11,0.22,0.24
			C206.26,180.32,206.15,180.42,206.02,180.41z"/>
		<path d="M195.36,189.06c-0.13,0-0.23-0.11-0.23-0.23c0-0.13,0.11-0.23,0.24-0.22c0.12,0,0.22,0.1,0.22,0.22
			C195.59,188.95,195.49,189.06,195.36,189.06z"/>
		<path d="M196.06,187.46c0,0.12-0.11,0.23-0.24,0.23c-0.13,0-0.23-0.11-0.22-0.24c0-0.12,0.1-0.22,0.23-0.22
			C195.95,187.23,196.06,187.33,196.06,187.46z"/>
		<path d="M201.44,203.18c0,0.13-0.11,0.23-0.23,0.23c-0.13,0-0.23-0.11-0.22-0.24c0-0.12,0.11-0.22,0.23-0.22
			C201.34,202.95,201.44,203.05,201.44,203.18z"/>
		<path d="M195.1,190.21c0,0.12-0.1,0.22-0.22,0.22c-0.12,0-0.22-0.11-0.21-0.23c0-0.12,0.1-0.21,0.22-0.21
			C195,189.99,195.1,190.09,195.1,190.21z"/>
		<path d="M211.8,203.52c0.13,0,0.22,0.09,0.22,0.22c0,0.12-0.09,0.21-0.21,0.22c-0.12,0.01-0.23-0.09-0.23-0.21
			C211.58,203.63,211.67,203.53,211.8,203.52z"/>
		<path d="M213.66,203.06c-0.12,0-0.22-0.1-0.22-0.22c0-0.12,0.1-0.22,0.22-0.22c0.12,0,0.21,0.09,0.21,0.21
			C213.88,202.95,213.78,203.06,213.66,203.06z"/>
		<path d="M219.52,190.92c0,0.12-0.11,0.22-0.23,0.22c-0.12,0-0.22-0.11-0.21-0.23c0.01-0.12,0.1-0.21,0.22-0.21
			C219.43,190.7,219.52,190.8,219.52,190.92z"/>
		<path d="M205.34,204.81c-0.12,0-0.22-0.09-0.22-0.22c0-0.12,0.09-0.21,0.21-0.22c0.12-0.01,0.23,0.09,0.23,0.21
			C205.56,204.71,205.47,204.81,205.34,204.81z"/>
		<path d="M215.69,183.71c-0.12,0-0.21-0.09-0.21-0.21c0-0.12,0.09-0.21,0.21-0.21c0.11,0,0.2,0.08,0.21,0.2
			C215.9,183.61,215.81,183.71,215.69,183.71z"/>
		<path d="M197.55,200.59c-0.12,0-0.21-0.09-0.21-0.21c0-0.11,0.08-0.2,0.2-0.21c0.12-0.01,0.22,0.08,0.22,0.2
			C197.76,200.49,197.67,200.59,197.55,200.59z"/>
		<path d="M195.05,194.82c0,0.12-0.09,0.22-0.21,0.22c-0.11,0-0.2-0.09-0.21-0.2c-0.01-0.12,0.08-0.22,0.2-0.22
			C194.94,194.61,195.04,194.7,195.05,194.82z"/>
		<path d="M196.51,186.07c0,0.12-0.09,0.22-0.21,0.22c-0.11,0-0.2-0.09-0.21-0.2c-0.01-0.12,0.08-0.22,0.2-0.22
			C196.41,185.86,196.51,185.95,196.51,186.07z"/>
		<path d="M201.17,181.52c0,0.12-0.1,0.21-0.22,0.21c-0.12,0-0.21-0.1-0.2-0.22c0-0.11,0.1-0.2,0.21-0.2
			C201.07,181.3,201.17,181.4,201.17,181.52z"/>
		<path d="M203.01,180.61c0,0.11-0.09,0.2-0.2,0.2c-0.11,0-0.2-0.1-0.19-0.21c0.01-0.12,0.08-0.18,0.19-0.19
			C202.92,180.41,203.01,180.5,203.01,180.61z"/>
		<path d="M218.77,197.09c-0.1-0.01-0.17-0.07-0.17-0.18c-0.01-0.11,0.08-0.2,0.19-0.19c0.11,0.01,0.18,0.07,0.19,0.18
			C218.98,197.01,218.89,197.09,218.77,197.09z"/>
		<path d="M219.44,195.5c0,0.12-0.09,0.22-0.19,0.21c-0.11-0.01-0.18-0.07-0.19-0.19c-0.01-0.11,0.08-0.2,0.19-0.19
			C219.37,195.34,219.43,195.41,219.44,195.5z"/>
		<path d="M210.64,180.04c0.12,0,0.21,0.09,0.2,0.2c-0.01,0.11-0.07,0.18-0.19,0.18c-0.11,0-0.2-0.09-0.19-0.2
			C210.47,180.11,210.54,180.05,210.64,180.04z"/>
		<path d="M194.39,191.4c0.13,0,0.22,0.09,0.21,0.2c-0.01,0.11-0.08,0.18-0.19,0.18c-0.11,0-0.19-0.09-0.19-0.2
			C194.23,191.47,194.3,191.41,194.39,191.4z"/>
		<path d="M199.81,202.51c0.12,0,0.22,0.09,0.21,0.19c-0.01,0.11-0.07,0.18-0.19,0.18c-0.11,0-0.2-0.08-0.19-0.19
			C199.65,202.58,199.72,202.53,199.81,202.51z"/>
		<path d="M209.93,204.46c0.12,0,0.22,0.09,0.21,0.19c-0.01,0.11-0.07,0.18-0.19,0.19c-0.11,0.01-0.2-0.09-0.19-0.19
			C209.76,204.53,209.83,204.47,209.93,204.46z"/>
		<path d="M206.7,204.89c0.12,0,0.21,0.08,0.2,0.18c-0.01,0.11-0.07,0.17-0.18,0.17c-0.1,0-0.19-0.08-0.18-0.18
			C206.55,204.97,206.61,204.9,206.7,204.89z"/>
		<path d="M219.06,187.68c0,0.1-0.08,0.19-0.18,0.19c-0.1-0.01-0.17-0.06-0.18-0.17c-0.01-0.1,0.07-0.19,0.17-0.19
			C218.96,187.5,219.05,187.58,219.06,187.68z"/>
		<path d="M217.97,186.01c-0.11-0.01-0.17-0.07-0.18-0.18c-0.01-0.1,0.09-0.19,0.18-0.19c0.1,0,0.19,0.09,0.18,0.19
			C218.14,185.94,218.07,186,217.97,186.01z"/>
		<path d="M218.49,198.29c-0.01,0.1-0.07,0.17-0.18,0.17c-0.1,0-0.18-0.08-0.18-0.18c0-0.1,0.09-0.18,0.19-0.17
			C218.43,198.11,218.48,198.18,218.49,198.29z"/>
		<path d="M199.11,182.6c-0.1,0-0.19-0.09-0.18-0.18c0.01-0.11,0.07-0.17,0.18-0.18c0.11,0,0.17,0.06,0.18,0.17
			C199.3,182.5,199.22,182.59,199.11,182.6z"/>
		<path d="M212.02,180.89c-0.09-0.01-0.16-0.06-0.17-0.17c-0.01-0.1,0.07-0.19,0.17-0.19c0.11,0,0.17,0.06,0.18,0.17
			C212.22,180.8,212.14,180.88,212.02,180.89z"/>
		<path d="M219.55,194.2c0.01-0.16,0.07-0.22,0.17-0.22c0.1,0,0.17,0.06,0.17,0.16c0,0.11-0.06,0.19-0.17,0.17
			C219.66,194.3,219.6,194.23,219.55,194.2z"/>
		<path d="M209.47,179.78c-0.06,0.05-0.12,0.12-0.18,0.13c-0.11,0.02-0.18-0.05-0.18-0.16c0-0.11,0.07-0.18,0.17-0.17
			c0.07,0.01,0.13,0.08,0.19,0.13C209.47,179.74,209.47,179.76,209.47,179.78z"/>
		<path d="M215.47,202.13c-0.04-0.06-0.12-0.12-0.13-0.19c-0.02-0.11,0.06-0.17,0.17-0.17c0.11,0,0.18,0.07,0.16,0.18
			c-0.01,0.07-0.09,0.12-0.13,0.19C215.51,202.13,215.49,202.13,215.47,202.13z"/>
		<path d="M196.61,184.64c0.05-0.03,0.11-0.1,0.18-0.11c0.1-0.01,0.17,0.07,0.16,0.18c-0.01,0.1-0.07,0.16-0.17,0.16
			C196.67,184.86,196.61,184.79,196.61,184.64z"/>
		<path d="M213.63,181.17c-0.1,0.08-0.15,0.15-0.22,0.16c-0.1,0.02-0.17-0.05-0.17-0.15c0-0.1,0.06-0.17,0.16-0.16
			C213.47,181.03,213.53,181.09,213.63,181.17z"/>
		<path d="M204.64,179.89c-0.04-0.06-0.11-0.11-0.12-0.18c-0.02-0.1,0.05-0.17,0.15-0.16c0.1,0,0.17,0.07,0.16,0.17
			c-0.01,0.06-0.08,0.12-0.12,0.18C204.68,179.89,204.66,179.89,204.64,179.89z"/>
		<path d="M219.95,189.56c-0.06,0.04-0.12,0.12-0.18,0.11c-0.05,0-0.13-0.08-0.14-0.14c-0.02-0.09,0.05-0.16,0.15-0.15
			c0.06,0.01,0.12,0.07,0.17,0.11C219.95,189.52,219.95,189.54,219.95,189.56z"/>
		<path d="M217.8,199.82c-0.04-0.06-0.1-0.11-0.11-0.17c-0.02-0.1,0.05-0.17,0.15-0.15c0.06,0.01,0.13,0.09,0.14,0.14
			c0.01,0.05-0.07,0.11-0.1,0.17C217.85,199.82,217.83,199.82,217.8,199.82z"/>
		<path d="M195.44,198.09c-0.06,0.04-0.13,0.1-0.18,0.1c-0.05-0.01-0.13-0.09-0.13-0.15c-0.01-0.09,0.06-0.16,0.16-0.14
			c0.06,0.01,0.11,0.08,0.16,0.12C195.44,198.05,195.44,198.07,195.44,198.09z"/>
		<path d="M198.62,202.26c-0.06,0.04-0.11,0.1-0.17,0.11c-0.09,0.01-0.17-0.06-0.14-0.15c0.01-0.06,0.09-0.13,0.15-0.13
			c0.05,0,0.11,0.07,0.17,0.11C198.62,202.22,198.62,202.24,198.62,202.26z"/>
		<path d="M207.89,179.48c-0.07-0.09-0.13-0.14-0.13-0.2c-0.01-0.09,0.05-0.16,0.14-0.14c0.05,0.01,0.12,0.09,0.13,0.14
			C208.03,179.33,207.96,179.39,207.89,179.48z"/>
		<path d="M194.14,192.97c-0.1,0.07-0.15,0.13-0.21,0.13c-0.09,0.01-0.16-0.06-0.13-0.15c0.01-0.05,0.09-0.12,0.14-0.12
			C193.99,192.83,194.04,192.9,194.14,192.97z"/>
		<path d="M217.27,183.98c-0.09,0.07-0.14,0.13-0.2,0.14c-0.09,0.02-0.16-0.05-0.14-0.14c0.01-0.05,0.08-0.13,0.13-0.13
			C217.11,183.84,217.17,183.91,217.27,183.98z"/>
		<path d="M194.55,196.18c-0.08,0.07-0.13,0.14-0.17,0.13c-0.05-0.01-0.09-0.08-0.14-0.12c0.04-0.04,0.08-0.11,0.13-0.12
			C194.4,196.07,194.46,196.13,194.55,196.18z"/>
		<path d="M196.17,199.72c0.06,0.08,0.13,0.14,0.12,0.18c-0.01,0.05-0.08,0.09-0.13,0.13c-0.04-0.05-0.11-0.09-0.11-0.14
			C196.04,199.85,196.11,199.8,196.17,199.72z"/>
		<path d="M208.28,205.54c-0.08,0.07-0.13,0.14-0.17,0.13c-0.05-0.01-0.1-0.08-0.14-0.12c0.04-0.04,0.08-0.11,0.13-0.12
			C208.14,205.42,208.2,205.48,208.28,205.54z"/>
		<path d="M220.39,192.77c-0.09,0.06-0.14,0.12-0.18,0.12c-0.05,0-0.09-0.08-0.13-0.12c0.05-0.05,0.09-0.12,0.14-0.13
			C220.25,192.63,220.31,192.71,220.39,192.77z"/>
		<path d="M214.79,181.83c-0.06-0.08-0.13-0.13-0.13-0.18c0-0.05,0.07-0.09,0.11-0.14c0.05,0.04,0.12,0.08,0.14,0.13
			C214.92,181.69,214.85,181.75,214.79,181.83z"/>
		<path d="M197.25,183.49c-0.05-0.08-0.11-0.13-0.1-0.18c0.01-0.04,0.07-0.08,0.11-0.12c0.04,0.04,0.1,0.08,0.11,0.13
			C197.37,183.37,197.31,183.42,197.25,183.49z"/>
		<path d="M213.35,204.23c-0.08,0.05-0.14,0.1-0.18,0.1c-0.04-0.01-0.08-0.08-0.11-0.12c0.05-0.04,0.09-0.1,0.14-0.11
			C213.23,204.1,213.28,204.17,213.35,204.23z"/>
		<path d="M211.32,204.96c0.06,0.08,0.11,0.12,0.11,0.16c0,0.04-0.06,0.08-0.1,0.12c-0.04-0.04-0.1-0.07-0.11-0.11
			C211.22,205.09,211.27,205.04,211.32,204.96z"/>
		<path d="M201.58,180.12c-0.07,0.05-0.11,0.11-0.14,0.1c-0.04,0-0.1-0.06-0.1-0.09c0-0.03,0.05-0.09,0.09-0.1
			C201.47,180.03,201.51,180.08,201.58,180.12z"/>
		<path d="M217.5,201.04c-0.07,0.05-0.11,0.1-0.15,0.09c-0.04-0.01-0.09-0.06-0.09-0.1c0-0.03,0.06-0.09,0.1-0.09
			C217.4,200.93,217.44,200.99,217.5,201.04z"/>
		<path d="M203.49,205.37c0.04,0.06,0.09,0.1,0.08,0.13c0,0.03-0.06,0.08-0.09,0.08c-0.03,0-0.08-0.06-0.08-0.09
			C203.39,205.46,203.44,205.43,203.49,205.37z"/>
		<path d="M206.64,178.81c-0.06,0.04-0.1,0.09-0.13,0.08c-0.03,0-0.06-0.06-0.09-0.09c0.03-0.03,0.06-0.08,0.1-0.08
			C206.55,178.71,206.59,178.76,206.64,178.81z"/>
		<path d="M199.71,181.04c-0.06,0.04-0.1,0.09-0.13,0.08c-0.03,0-0.06-0.06-0.09-0.09c0.03-0.03,0.06-0.08,0.1-0.08
			C199.61,180.95,199.65,181,199.71,181.04z"/>
		<path d="M202.11,204.91c0.04,0.06,0.09,0.09,0.09,0.13c0,0.03-0.06,0.09-0.09,0.09c-0.03,0-0.08-0.05-0.09-0.09
			C202.02,205,202.07,204.96,202.11,204.91z"/>
		<path d="M215.16,203.32c-0.06,0.04-0.1,0.08-0.13,0.08c-0.03-0.01-0.08-0.06-0.08-0.09c0-0.03,0.06-0.08,0.09-0.08
			C215.07,203.23,215.11,203.28,215.16,203.32z"/>
		<path d="M219.35,186.19c0.04,0.06,0.08,0.09,0.07,0.12c0,0.03-0.05,0.05-0.08,0.08c-0.03-0.03-0.07-0.06-0.07-0.09
			C219.27,186.27,219.31,186.24,219.35,186.19z"/>
		<path d="M203.41,179.22c-0.05,0.04-0.08,0.08-0.11,0.08c-0.03,0-0.06-0.04-0.09-0.07c0.03-0.03,0.05-0.08,0.08-0.08
			C203.31,179.15,203.35,179.19,203.41,179.22z"/>
		<path d="M194.57,186.99c-0.06,0.03-0.09,0.07-0.12,0.07c-0.03,0-0.05-0.05-0.08-0.08c0.03-0.03,0.06-0.07,0.09-0.07
			C194.49,186.91,194.52,186.95,194.57,186.99z"/>
		<path d="M200.74,204.67c-0.04-0.05-0.09-0.08-0.09-0.11c0-0.03,0.04-0.08,0.07-0.08c0.03,0,0.08,0.04,0.08,0.07
			C200.81,204.58,200.78,204.62,200.74,204.67z"/>
		<path d="M193.47,194.23c0.03,0.06,0.07,0.1,0.07,0.13c-0.01,0.03-0.05,0.06-0.09,0.07c-0.02,0-0.06-0.05-0.06-0.08
			C193.39,194.31,193.42,194.28,193.47,194.23z"/>
		<path d="M197.19,201.74c-0.05,0.04-0.09,0.09-0.11,0.09c-0.03,0-0.07-0.05-0.08-0.08c0-0.02,0.04-0.07,0.07-0.07
			C197.09,201.67,197.13,201.71,197.19,201.74z"/>
	</g>
	<g class="st1">
		
			<ellipse transform="matrix(0.955 -0.2967 0.2967 0.955 -18.4528 45.2525)" class="st2" cx="139.86" cy="83.42" rx="18.5" ry="7.79"/>
		<ellipse transform="matrix(0.955 -0.2967 0.2967 0.955 -18.4528 45.2525)" cx="139.86" cy="83.42" rx="15.68" ry="6.61"/>
	</g>
	<path class="st1" d="M168.75,168.19c-19.27,0-38.52,0-57.78,0c0.05-1.16,0.72-2.06,1.59-2.15c0.18-0.02,0.35-0.01,0.53-0.01
		c7.15,0,14.3-0.01,21.44,0.01c0.59,0,1.05-0.22,1.44-0.84c0.26-0.42,0.58-0.78,0.85-1.19c0.24-0.36,0.53-0.52,0.89-0.51
		c1.11,0.01,2.22-0.01,3.33-0.01c7.73-0.03,15.46-0.07,23.19-0.09c0.61,0,1.25-0.03,1.83,0.18c1.5,0.55,2.37,1.98,2.69,4.07
		C168.77,167.81,168.75,167.98,168.75,168.19z"/>
	<g class="st1">
		<path d="M166.22,139.31h-19.95c-0.51,0-1.28,0.42-1.71,0.93l-1.03,1.23c-0.43,0.51-1.2,0.93-1.71,0.93h-7.68
			c-0.51,0-1.28,0.42-1.71,0.93l-1.04,1.24c-0.43,0.51-0.36,0.93,0.15,0.93h19.2c0.33,0,0.77-0.17,1.17-0.45l3.18-2.2
			c0.4-0.28,0.85-0.45,1.17-0.45h6.61c0.33,0,0.77-0.17,1.17-0.45l1.79-1.24C166.73,140.1,166.95,139.31,166.22,139.31z"/>
		<path d="M131.63,142.41h-5.77c-0.23,1.08-0.61,2.13-1.14,3.1h4.3c0.51,0,1.28-0.42,1.71-0.93l1.04-1.24
			C132.21,142.82,132.15,142.41,131.63,142.41z"/>
		<path d="M123.44,145.51h2.97c0.32,0,0.58-0.26,0.58-0.58v-1.94c0-0.32-0.26-0.58-0.58-0.58h-0.37c-0.51,0-1.28,0.42-1.71,0.93
			l-1.04,1.24C122.85,145.09,122.92,145.51,123.44,145.51z"/>
		<path d="M123.34,142.36h-4.02c-0.02,0.37-0.19,0.73-0.59,0.98c-0.78,0.47-1.4,1.25-1.85,2.13h3.86c0.51,0,1.28-0.42,1.71-0.93
			l1.04-1.24C123.92,142.78,123.86,142.36,123.34,142.36z"/>
		<path d="M116.77,145.47h2.97c0.32,0,0.58-0.26,0.58-0.58v-1.94c0-0.32-0.26-0.58-0.58-0.58h-0.37c-0.51,0-1.28,0.42-1.71,0.93
			l-1.04,1.24C116.18,145.05,116.25,145.47,116.77,145.47z"/>
		<path d="M116.62,142.36h-2.97c-0.32,0-0.58,0.26-0.58,0.58v1.94c0,0.32,0.26,0.58,0.58,0.58h0.37c0.51,0,1.28-0.42,1.71-0.93
			l1.04-1.24C117.2,142.78,117.14,142.36,116.62,142.36z"/>
	</g>
	<g class="st1">
		<ellipse transform="matrix(0.8327 -0.5537 0.5537 0.8327 -42.8512 89.0452)" cx="125.95" cy="115.44" rx="7.48" ry="3.31"/>
		<ellipse transform="matrix(0.8327 -0.5537 0.5537 0.8327 -40.5237 96.7497)" cx="139.86" cy="115.44" rx="7.48" ry="3.31"/>
		<ellipse transform="matrix(0.8327 -0.5537 0.5537 0.8327 -38.1961 104.4542)" cx="153.78" cy="115.44" rx="7.48" ry="3.31"/>
	</g>
	<path class="st1" d="M216.95,58.4c-5.7,0-13.55-4.62-17.54-10.31c-3.99-5.7-2.6-10.31,3.09-10.31c3.78,0,8.51,2.04,12.44,5.08
		c-5.14-4.48-11.82-7.61-17.04-7.61c-7.09,0-8.81,5.75-3.85,12.84c4.96,7.09,14.74,12.84,21.83,12.84c5.23,0,7.52-3.13,6.39-7.61
		C222.6,56.36,220.74,58.4,216.95,58.4z"/>
	<path class="st1" d="M157.53,42.6c-1.28-4.11-10.22-4.99-19.98-1.96c-9.75,3.03-16.63,8.82-15.35,12.93
		c1.28,4.11,10.22,4.99,19.98,1.96C151.93,52.5,158.8,46.71,157.53,42.6z M141.82,54.4c-8.27,2.57-15.85,1.83-16.93-1.66
		c-1.08-3.48,4.74-8.39,13.01-10.96c8.27-2.57,15.85-1.83,16.93,1.66C155.92,46.92,150.09,51.83,141.82,54.4z"/>
	<g class="st1">
		<path class="st3" d="M205.81,139.16l-4.52,2.38c-1.69,0.89-3.67-0.55-3.34-2.43l0.86-5.03c0.13-0.75-0.12-1.51-0.66-2.04
			l-3.66-3.56c-1.37-1.33-0.61-3.66,1.28-3.93l5.05-0.73c0.75-0.11,1.4-0.58,1.74-1.26l2.26-4.58c0.85-1.71,3.29-1.71,4.13,0
			l2.26,4.58c0.34,0.68,0.98,1.15,1.74,1.26l5.05,0.73c1.89,0.27,2.64,2.6,1.28,3.93l-3.66,3.56c-0.54,0.53-0.79,1.29-0.66,2.04
			l0.86,5.03c0.32,1.88-1.65,3.32-3.34,2.43l-4.52-2.38C207.29,138.81,206.49,138.81,205.81,139.16z"/>
		<path d="M206.3,134.65l-2.46,1.29c-0.92,0.48-2-0.3-1.82-1.32l0.47-2.74c0.07-0.41-0.07-0.82-0.36-1.11l-1.99-1.94
			c-0.75-0.73-0.33-1.99,0.7-2.14l2.75-0.4c0.41-0.06,0.76-0.32,0.95-0.69l1.23-2.49c0.46-0.93,1.79-0.93,2.25,0l1.23,2.49
			c0.18,0.37,0.54,0.63,0.95,0.69l2.75,0.4c1.03,0.15,1.44,1.42,0.7,2.14l-1.99,1.94c-0.3,0.29-0.43,0.7-0.36,1.11l0.47,2.74
			c0.18,1.03-0.9,1.81-1.82,1.32l-2.46-1.29C207.11,134.46,206.67,134.46,206.3,134.65z"/>
	</g>
	<g class="st1">
		<path d="M152.77,187.79C152.77,187.79,152.77,187.79,152.77,187.79c-11.59-1.55-24.47-0.67-31.65,2.41
			c-7.17,3.07-7.06,7.63-0.4,11.27c0.05,0.03,0.11,0.02,0.16-0.03l0.24-0.25c0.09-0.09,0.08-0.26,0-0.33
			c-3.73-3.06-2.55-6.74,3.95-9.53c6.91-2.96,17.88-4.07,27.69-3.14L152.77,187.79z"/>
		<path d="M126.96,203.29C126.96,203.29,126.96,203.29,126.96,203.29c11.59,1.55,24.47,0.67,31.65-2.41
			c7.17-3.07,7.06-7.63,0.4-11.27c-0.05-0.03-0.11-0.02-0.16,0.03l-0.24,0.25c-0.09,0.09-0.08,0.26,0,0.33
			c3.73,3.06,2.55,6.74-3.95,9.53c-6.91,2.96-17.88,4.07-27.69,3.14L126.96,203.29z"/>
	</g>
	<g class="st1">
		<path class="st4" d="M62.29,136.57c-1.41-40.44,3.2-75.2,10.29-77.58c1.32-0.44,2.63,0.3,3.9,2.01c0.34-0.15,0.27-0.12,0.61-0.28
			c-0.79-3.31-2.97-10.27-4.78-9.66c-7.86,2.64-12.97,41.16-11.4,85.97c1.56,44.81,9.21,79.04,17.07,76.4
			c5.1-1.71,9.04-18.58,10.75-42.46c-0.56,0.5-1.14,0.97-1.75,1.38c-1.71,18.78-5.05,31.73-9.28,33.15
			C70.6,207.89,63.7,177,62.29,136.57z"/>
		<path class="st5" d="M79.93,65.97c-0.36-0.31-0.73-0.63-1.09-0.94c-1.07-0.93-2.13-1.87-3.2-2.8c-0.33-0.29-0.7-0.36-1.11-0.28
			c-0.95,0.2-1.9,0.39-2.85,0.59c-0.7,0.14-1.39,0.29-2.09,0.43c-1.78,0.36-3.46-1.24-3.07-2.92c0.15-0.63,0.56-1.2,0.63-1.84
			c0.11-1.04,0.53-1.99,1.21-2.78c0.43-0.5,0.32-1,0.02-1.45c-0.94-1.41-1.89-2.82-2.84-4.22c-0.46-0.68-0.61-1.38-0.36-2.11
			c0.33-0.98,1.3-1.54,2.42-1.39c1.57,0.2,3.14,0.43,4.71,0.64c0.17,0.02,0.34,0.04,0.5,0.07c0.48,0.08,0.84-0.09,1.13-0.43
			c1.06-1.23,2.1-2.47,3.17-3.7c0.61-0.71,1.43-0.94,2.39-0.66c0.96,0.27,1.57,0.91,1.82,1.85c0.44,1.63,0.86,3.26,1.28,4.89
			c0.1,0.4,0.39,0.73,0.77,0.89c1.59,0.67,3.19,1.33,4.79,2c1.47,0.61,2.09,2.23,1.29,3.57c-0.15,0.25-0.38,0.43-0.63,0.56
			c-1.53,0.84-3.05,1.67-4.58,2.51c-0.3,0.16-0.49,0.47-0.5,0.81c-0.03,0.92-0.07,1.84-0.11,2.76c-0.03,0.76-0.09,1.53-0.09,2.29
			c0,1.4-1.66,2.53-3.25,1.84c-0.13-0.06-0.26-0.13-0.39-0.19C79.94,65.96,79.93,65.96,79.93,65.97z"/>
		<path class="st6" d="M62.29,136.57c-1.41-40.44,3.2-75.2,10.29-77.58c1.2-0.4,2.39,0.21,3.55,1.61c0.26-0.17,0.53-0.33,0.8-0.48
			c-0.88-3.48-2.92-9.63-4.63-9.06c-7.86,2.64-12.97,41.16-11.4,85.97c1.56,44.81,9.21,79.04,17.07,76.4
			c5.1-1.71,9.04-18.58,10.75-42.46c-0.56,0.5-1.14,0.97-1.75,1.38c-1.71,18.78-5.05,31.73-9.28,33.15
			C70.6,207.89,63.7,177,62.29,136.57z"/>
		<path d="M78.29,61.23c-0.22-0.19-0.44-0.38-0.66-0.57c-0.65-0.57-1.29-1.13-1.94-1.7c-0.2-0.18-0.43-0.22-0.67-0.17
			c-0.57,0.12-1.15,0.24-1.72,0.36c-0.42,0.09-0.84,0.18-1.27,0.26c-1.08,0.22-2.1-0.75-1.86-1.77c0.05-0.22,0.15-0.42,0.24-0.63
			c0.32-0.76,0.64-1.51,0.96-2.27c0.09-0.23,0.06-0.58-0.07-0.78c-0.57-0.85-1.14-1.71-1.72-2.56c-0.28-0.41-0.37-0.84-0.22-1.28
			c0.2-0.59,0.79-0.93,1.47-0.85c0.95,0.12,1.9,0.26,2.86,0.39c0.1,0.01,0.2,0.03,0.3,0.04c0.29,0.05,0.51-0.06,0.69-0.26
			c0.64-0.75,1.28-1.5,1.92-2.24c0.37-0.43,0.87-0.57,1.45-0.4c0.58,0.16,0.95,0.55,1.11,1.12c0.26,0.99,0.52,1.98,0.78,2.96
			c0.06,0.24,0.24,0.44,0.47,0.54c0.97,0.41,1.94,0.81,2.9,1.21c0.83,0.34,1.21,1.21,0.88,1.98c-0.1,0.24-0.27,0.41-0.5,0.54
			c-0.92,0.5-1.83,1.01-2.75,1.51c-0.18,0.1-0.3,0.29-0.3,0.49c-0.02,0.56-0.04,1.12-0.07,1.67c-0.02,0.46-0.05,0.93-0.05,1.39
			c0,0.85-1.01,1.53-1.97,1.12C78.46,61.3,78.38,61.26,78.29,61.23C78.3,61.22,78.3,61.23,78.29,61.23z"/>
	</g>
	<g class="st1">
		<circle class="st7" cx="85.22" cy="112.95" r="11.85"/>
		<path d="M80.2,90.59c0.57-4.55,1.4-7.32,2.37-7.34c2.13-0.05,4.17,13.06,4.56,29.28s-1.04,29.41-3.17,29.46
			c-0.98,0.02-1.93-2.7-2.72-7.22c1.03,7.09,2.4,11.56,3.82,11.52c2.59-0.06,4.34-15.2,3.9-33.81c-0.44-18.61-2.9-33.65-5.49-33.59
			C82.06,78.94,80.89,83.46,80.2,90.59z"/>
	</g>
</g>
<g id="Layer_1_copy">
	<g>
		<path d="M276.78,119.65H173.99c-2.65,0-6.6,2.15-8.83,4.8l-5.32,6.34c-2.22,2.65-6.18,4.8-8.83,4.8h-39.56
			c-2.65,0-6.6,2.15-8.83,4.8l-5.35,6.38c-2.22,2.65-1.88,4.8,0.77,4.8h98.92c1.68,0,3.96-0.87,6.04-2.31l16.4-11.33
			c2.07-1.43,4.36-2.31,6.04-2.31h34.07c1.68,0,3.96-0.87,6.04-2.31l9.23-6.38C279.39,123.74,280.53,119.65,276.78,119.65z"/>
		<path d="M98.54,135.61H68.84c-1.18,5.55-3.15,10.98-5.87,15.98h22.17c2.65,0,6.6-2.15,8.83-4.8l5.35-6.38
			C101.54,137.76,101.2,135.61,98.54,135.61z"/>
		<path d="M56.32,151.59h15.32c1.65,0,2.99-1.34,2.99-2.99V138.6c0-1.65-1.34-2.99-2.99-2.99h-1.91c-2.65,0-6.6,2.15-8.83,4.8
			l-5.35,6.38C53.32,149.44,53.67,151.59,56.32,151.59z"/>
		<path d="M55.83,135.39h-20.7c-0.09,1.9-1,3.77-3.06,5.02c-4,2.43-7.21,6.44-9.53,10.96h19.89c2.65,0,6.6-2.15,8.83-4.8l5.35-6.38
			C58.83,137.54,58.48,135.39,55.83,135.39z"/>
		<path d="M21.94,151.37h15.32c1.65,0,2.99-1.34,2.99-2.99v-10.01c0-1.65-1.34-2.99-2.99-2.99h-1.91c-2.65,0-6.6,2.15-8.83,4.8
			l-5.35,6.38C18.95,149.23,19.29,151.37,21.94,151.37z"/>
		<path d="M21.21,135.39H5.89c-1.65,0-2.99,1.34-2.99,2.99v10.01c0,1.65,1.34,2.99,2.99,2.99H7.8c2.65,0,6.6-2.15,8.83-4.8
			l5.35-6.38C24.21,137.54,23.86,135.39,21.21,135.39z"/>
	</g>
</g>
</svg>
